<?xml version="1.0" encoding="utf-8"?>
<!-- Generator: Adobe Illustrator 26.0.3, SVG Export Plug-In . SVG Version: 6.00 Build 0)  -->
<svg version="1.1" id="Layer_1" xmlns="http://www.w3.org/2000/svg" xmlns:xlink="http://www.w3.org/1999/xlink" x="0px" y="0px"
	 viewBox="0 0 35.6 21.7" style="enable-background:new 0 0 35.6 21.7;" xml:space="preserve">
<style type="text/css">
	.st0{fill:#3D2852;}
</style>
<g id="Group_3433" transform="translate(1771.586 2073.25) rotate(180)">
	<g id="Back_Icon" transform="translate(1770.586 2071.836) rotate(180)">
		<g id="Path_296">
			<path class="st0" d="M24.2,19.9c-0.3,0-0.5-0.1-0.7-0.3c-0.4-0.4-0.4-1,0-1.4l8.7-8.7l-8.7-8.7c-0.4-0.4-0.4-1,0-1.4s1-0.4,1.4,0
				l9.4,9.4c0.4,0.4,0.4,1,0,1.4l-9.4,9.4C24.7,19.8,24.4,19.9,24.2,19.9z"/>
		</g>
	</g>
	<g id="Path_757">
		<path class="st0" d="M1738.5,2061.5h32.1c0.6,0,1,0.4,1,1s-0.4,1-1,1h-32.1c-0.6,0-1-0.4-1-1S1737.9,2061.5,1738.5,2061.5z"/>
	</g>
</g>
</svg>
