<svg xmlns="http://www.w3.org/2000/svg" width="21" height="17.193" viewBox="0 0 21 17.193">
  <path id="XMLID_827_" d="M20.522,30.081a7.961,7.961,0,0,1-1.016.37,4.49,4.49,0,0,0,.914-1.608.339.339,0,0,0-.5-.395,7.993,7.993,0,0,1-2.363.934A4.51,4.51,0,0,0,9.9,32.605a4.6,4.6,0,0,0,.037.582,11.541,11.541,0,0,1-7.922-4.2.339.339,0,0,0-.555.043,4.515,4.515,0,0,0,.462,5.189,3.819,3.819,0,0,1-.6-.269.339.339,0,0,0-.5.288c0,.02,0,.04,0,.06a4.524,4.524,0,0,0,2.207,3.877c-.115-.011-.229-.028-.343-.05a.339.339,0,0,0-.386.436,4.507,4.507,0,0,0,3.3,3.022A7.975,7.975,0,0,1,1.331,42.8a8.155,8.155,0,0,1-.955-.056.339.339,0,0,0-.223.621A12.157,12.157,0,0,0,6.728,45.29a11.7,11.7,0,0,0,9.061-3.98,12.615,12.615,0,0,0,3.14-8.222c0-.124,0-.249-.006-.373a8.764,8.764,0,0,0,2.017-2.136.339.339,0,0,0-.419-.5Z" transform="translate(0.002 -28.097)" />
</svg>
