<svg id="svgexport-1" xmlns="http://www.w3.org/2000/svg" width="21" height="21.004" viewBox="0 0 21 21.004">
  <path id="Path_25794" data-name="Path 25794" d="M23.447,8.675a7.705,7.705,0,0,0-.488-2.548,5.383,5.383,0,0,0-3.075-3.072,7.689,7.689,0,0,0-2.547-.489C16.212,2.513,15.855,2.5,13,2.5s-3.209.013-4.329.061a7.7,7.7,0,0,0-2.548.488A5.125,5.125,0,0,0,4.264,4.264a5.171,5.171,0,0,0-1.21,1.858,7.7,7.7,0,0,0-.489,2.548C2.513,9.8,2.5,10.152,2.5,13s.013,3.209.061,4.329a7.681,7.681,0,0,0,.489,2.548,5.375,5.375,0,0,0,3.072,3.073,7.7,7.7,0,0,0,2.548.489c1.12.049,1.477.061,4.329.061s3.209-.013,4.329-.061a7.7,7.7,0,0,0,2.548-.488,5.372,5.372,0,0,0,3.073-3.073,7.7,7.7,0,0,0,.487-2.548c.05-1.121.062-1.477.062-4.329s0-3.209-.053-4.329Zm-1.892,8.576a5.741,5.741,0,0,1-.361,1.949A3.484,3.484,0,0,1,19.2,21.194a5.744,5.744,0,0,1-1.949.361c-1.108.05-1.44.061-4.243.061s-3.139-.012-4.243-.061a5.724,5.724,0,0,1-1.949-.361,3.231,3.231,0,0,1-1.206-.783A3.265,3.265,0,0,1,4.826,19.2a5.809,5.809,0,0,1-.361-1.949c-.049-1.108-.061-1.44-.061-4.243s.013-3.139.061-4.243A5.789,5.789,0,0,1,4.826,6.82a3.193,3.193,0,0,1,.788-1.206,3.26,3.26,0,0,1,1.206-.784A5.8,5.8,0,0,1,8.77,4.469c1.107-.049,1.44-.061,4.243-.061s3.138.013,4.243.061a5.777,5.777,0,0,1,1.948.361,3.459,3.459,0,0,1,1.99,1.99,5.76,5.76,0,0,1,.361,1.949c.05,1.107.062,1.44.062,4.243s-.013,3.13-.062,4.238Z" transform="translate(-2.5 -2.5)" />
  <path id="Path_25795" data-name="Path 25795" d="M13.976,8.308a5.4,5.4,0,1,0,5.4,5.4A5.4,5.4,0,0,0,13.976,8.308Zm0,8.9a3.5,3.5,0,1,1,3.5-3.5,3.5,3.5,0,0,1-3.5,3.5ZM20.845,8.1a1.26,1.26,0,1,1-1.259-1.214A1.26,1.26,0,0,1,20.845,8.1Z" transform="translate(-3.472 -3.2)" />
</svg>
