<svg xmlns="http://www.w3.org/2000/svg" width="126.445" height="21.608" viewBox="0 0 126.445 21.608">
  <g id="Group_3260" data-name="Group 3260" transform="translate(-273.321 -701.597)">
    <path id="Path_631" data-name="Path 631" d="M399.766,723.2h-5.9V714.22l-4.133,4.327h-.786l-4.1-4.324V723.2h-5.9v-21.4h2.288l8.083,8.968,8.232-8.968h2.228Zm-28.275,0h-5.586l-1.223-2.627h-7.96L355.5,723.2h-5.586V722.16l.02-.044L359.4,701.6h2.58l9.515,20.563Zm-29.013,0h-6.318l-3.583-6.15H330.07l-2.795,6.15h-2.911V701.866h9.385a7.307,7.307,0,0,1,7.379,5.208,7.789,7.789,0,0,1-2.664,8.567l4.013,6.5Zm-25.56,0h-5.584l-1.224-2.627h-7.958l-1.223,2.627h-5.586V722.16l.02-.044,9.463-20.52h2.58l9.513,20.563Zm-40.695,0h-2.9V701.866h9.416a7.389,7.389,0,0,1,5.8,2.525,8.768,8.768,0,0,1-.009,10.972,7.371,7.371,0,0,1-5.788,2.5h-3.719Zm82.424-7.636h4.1l-2.079-4.721Zm-54.571,0h4.1l-2.077-4.721ZM279.1,712.614h3.6c1.331,0,2.035-1.409,2.042-2.8.006-1.349-.623-2.717-2.044-2.731-.842-.02-1.725-.013-2.58-.006-.345,0-.686.005-1.02.006Zm51.043-.747h3.6a2.188,2.188,0,0,0,2.006-2.415,2.111,2.111,0,0,0-2.009-2.369c-.837-.02-1.71-.013-2.555-.006-.35,0-.7.005-1.045.006Z" transform="translate(0 0)" fill="#fff"/>
  </g>
</svg>
