<svg id="apple-music" xmlns="http://www.w3.org/2000/svg" width="140.936" height="33.516" viewBox="0 0 140.936 33.516">
  <path id="Path_20803" data-name="Path 20803" d="M22.734,18.265A7,7,0,0,1,26.264,11.9a7.73,7.73,0,0,0-5.983-3.318,8.551,8.551,0,0,0-3.6.671,17.633,17.633,0,0,1-2.649.871,7.952,7.952,0,0,1-2.388-.737A8.078,8.078,0,0,0,8.64,8.645,7.451,7.451,0,0,0,4.75,9.8a8.28,8.28,0,0,0-2.876,3.067A11.467,11.467,0,0,0,.5,18.633a18.856,18.856,0,0,0,1.012,6.034,20.361,20.361,0,0,0,2.42,5.06A16.294,16.294,0,0,0,6.22,32.61,3.837,3.837,0,0,0,9.1,33.95a7.282,7.282,0,0,0,2.484-.706,7.087,7.087,0,0,1,2.878-.635,6.868,6.868,0,0,1,2.779.635,7.15,7.15,0,0,0,2.615.671,4.329,4.329,0,0,0,2.813-1.306,7.942,7.942,0,0,0,1-1.107q.622-.82,1.194-1.676.476-.738.9-1.508a15.168,15.168,0,0,0,.8-1.71q.162-.369.294-.754c.087-.257.174-.519.261-.787a7.437,7.437,0,0,1-4.38-6.8ZM46.442,24.24h-.159L39.644,9.066H34.43V33.548h4.544V17.692h.211l5.549,12.591h3.187l5.531-12.591h.212V33.548h4.6V9.066H53.082ZM18.613,5.863A7.4,7.4,0,0,0,20.347,1.17V.836A1.769,1.769,0,0,0,20.314.5a6.392,6.392,0,0,0-2.567.77,7.121,7.121,0,0,0-2.24,1.777,6.94,6.94,0,0,0-1.766,4.525V7.89a1.7,1.7,0,0,0,.033.32,5.411,5.411,0,0,0,4.839-2.347Zm92.76,3.2h5.108V33.549h-5.108Zm20.534,3.892a4.547,4.547,0,0,1,4.631,4.843h4.9v-.52c0-4.735-3.611-8.68-9.565-8.68-6.377,0-10.18,4.2-10.18,11.354v2.762c0,7.155,3.769,11.3,10.162,11.3,6.112,0,9.583-4,9.583-8.448v-.538h-4.9a4.34,4.34,0,0,1-4.6,4.628c-3.1,0-5.074-2.206-5.074-6.924v-2.76c0-4.7,1.991-7.015,5.038-7.015ZM77.8,24.526c0,3.283-1.92,5.094-4.738,5.094-2.836,0-4.755-1.793-4.755-5.094V9.066H63.229V25.244c0,5.221,3.7,8.772,9.828,8.772,6.112,0,9.828-3.551,9.828-8.772V9.066H77.8v15.46ZM99.784,19.29l-3.645-.824c-2.148-.45-3.276-1.4-3.276-2.817,0-1.882,1.532-3.067,4-3.067,2.783,0,4.174,1.6,4.3,3.318h4.756c-.053-4.323-3.663-7.336-9.036-7.336-5.09,0-9.106,2.673-9.106,7.479,0,4.161,2.819,6.1,6.2,6.834l3.61.842c2.431.556,3.663,1.364,3.663,3.031,0,1.9-1.515,3.194-4.35,3.194-3.047,0-4.65-1.615-4.791-3.427h-4.9c.072,3.462,2.361,7.5,9.442,7.5,5.953,0,9.635-2.959,9.635-7.768,0-4.448-2.979-6.188-6.5-6.958Z" transform="translate(-0.5 -0.5)" fill="#7d8e9f"/>
</svg>
