<svg xmlns="http://www.w3.org/2000/svg" width="118.398" height="28.517" viewBox="0 0 118.398 28.517">
  <g id="Group_3576" data-name="Group 3576" transform="translate(-18.286 -10.878)">
    <path id="Path_20822" data-name="Path 20822" d="M69.264,39.012a6.04,6.04,0,0,1,2.878-5.068,6.189,6.189,0,0,0-4.874-2.634c-2.05-.216-4.039,1.226-5.083,1.226-1.065,0-2.673-1.206-4.406-1.17a6.489,6.489,0,0,0-5.462,3.33c-2.362,4.088-.6,10.095,1.662,13.4,1.132,1.619,2.454,3.425,4.186,3.362,1.694-.069,2.326-1.078,4.37-1.078,2.025,0,2.619,1.078,4.385,1.038,1.818-.028,2.962-1.626,4.055-3.258a13.358,13.358,0,0,0,1.854-3.775A5.844,5.844,0,0,1,69.264,39.012Zm-3.335-9.876a5.944,5.944,0,0,0,1.361-4.261A6.057,6.057,0,0,0,63.373,26.9a5.657,5.657,0,0,0-1.4,4.1A5,5,0,0,0,65.929,29.136Z" transform="translate(-32.909 -13.997)" fill="#fff"/>
    <g id="Group_3567" data-name="Group 3567" transform="translate(60.109 11.701)">
      <path id="Path_1448" data-name="Path 1448" d="M180.6,50.177h-2.181l-1.195-3.753h-4.153l-1.138,3.753h-2.123L173.928,37.4h2.541Zm-3.736-5.328-1.081-3.337q-.171-.511-.644-2.407H175.1q-.19.815-.607,2.407l-1.062,3.337Zm14.3.608a5.217,5.217,0,0,1-1.277,3.715,3.746,3.746,0,0,1-2.841,1.214,2.845,2.845,0,0,1-2.632-1.307v4.835h-2.048V43.992q0-1.477-.076-3.029h1.8l.114,1.461h.038a3.643,3.643,0,0,1,5.831-.362A5.093,5.093,0,0,1,191.166,45.457Zm-2.086.075a3.8,3.8,0,0,0-.607-2.219,2.1,2.1,0,0,0-1.782-.91,2.13,2.13,0,0,0-1.374.5,2.33,2.33,0,0,0-.806,1.318,2.674,2.674,0,0,0-.1.623v1.537a2.464,2.464,0,0,0,.617,1.7,2.048,2.048,0,0,0,1.6.692,2.1,2.1,0,0,0,1.8-.891A3.923,3.923,0,0,0,189.08,45.532Zm12.687-.075a5.217,5.217,0,0,1-1.277,3.715,3.748,3.748,0,0,1-2.842,1.214,2.845,2.845,0,0,1-2.632-1.307v4.835h-2.048V43.992q0-1.477-.076-3.029h1.8l.114,1.461h.038a3.644,3.644,0,0,1,5.832-.362A5.1,5.1,0,0,1,201.767,45.457Zm-2.087.075a3.8,3.8,0,0,0-.608-2.219,2.1,2.1,0,0,0-1.781-.91,2.139,2.139,0,0,0-1.376.5,2.326,2.326,0,0,0-.8,1.318,2.734,2.734,0,0,0-.1.623v1.537a2.472,2.472,0,0,0,.616,1.7,2.051,2.051,0,0,0,1.6.692,2.1,2.1,0,0,0,1.8-.891A3.921,3.921,0,0,0,199.68,45.532Zm13.939,1.061a3.414,3.414,0,0,1-1.136,2.655A5.038,5.038,0,0,1,209,50.366a6.078,6.078,0,0,1-3.31-.8l.474-1.706a5.7,5.7,0,0,0,2.958.8,2.79,2.79,0,0,0,1.8-.521,1.7,1.7,0,0,0,.647-1.392,1.784,1.784,0,0,0-.532-1.309,4.932,4.932,0,0,0-1.763-.985q-3.357-1.252-3.358-3.66a3.231,3.231,0,0,1,1.185-2.578,4.687,4.687,0,0,1,3.139-1.006,6.2,6.2,0,0,1,2.9.607l-.514,1.669a5.076,5.076,0,0,0-2.456-.587,2.5,2.5,0,0,0-1.694.531,1.52,1.52,0,0,0-.514,1.158,1.564,1.564,0,0,0,.589,1.251,6.633,6.633,0,0,0,1.857.985,6.3,6.3,0,0,1,2.427,1.554A3.237,3.237,0,0,1,213.619,46.593Zm6.788-4.093h-2.257v4.474q0,1.707,1.195,1.705a3.6,3.6,0,0,0,.91-.1l.057,1.555a4.641,4.641,0,0,1-1.592.227,2.455,2.455,0,0,1-1.9-.74,3.629,3.629,0,0,1-.683-2.484V42.5h-1.345V40.959h1.345V39.272l2.011-.607v2.294h2.257Zm10.164,3a5.055,5.055,0,0,1-1.214,3.488,4.328,4.328,0,0,1-3.375,1.4,4.125,4.125,0,0,1-3.234-1.344,4.9,4.9,0,0,1-1.2-3.393,5.013,5.013,0,0,1,1.242-3.507,4.305,4.305,0,0,1,3.348-1.366,4.213,4.213,0,0,1,3.261,1.346,4.838,4.838,0,0,1,1.176,3.372Zm-2.122.047a4.122,4.122,0,0,0-.549-2.174,2.027,2.027,0,0,0-1.84-1.1,2.056,2.056,0,0,0-1.878,1.1,4.193,4.193,0,0,0-.55,2.212,4.113,4.113,0,0,0,.55,2.175,2.1,2.1,0,0,0,3.7-.018A4.138,4.138,0,0,0,228.447,45.541Zm8.781-2.778a3.563,3.563,0,0,0-.646-.057,1.933,1.933,0,0,0-1.669.816,3.073,3.073,0,0,0-.511,1.82v4.835h-2.048V43.865q0-1.451-.059-2.9h1.784l.075,1.763h.057a3.163,3.163,0,0,1,1.024-1.461,2.477,2.477,0,0,1,1.48-.493,3.29,3.29,0,0,1,.512.037Zm9.158,2.371a4.8,4.8,0,0,1-.075.929h-6.143a2.672,2.672,0,0,0,.891,2.087,3.048,3.048,0,0,0,2.009.643,6.8,6.8,0,0,0,2.486-.435l.321,1.42a7.685,7.685,0,0,1-3.09.569,4.48,4.48,0,0,1-3.368-1.26A4.657,4.657,0,0,1,238.2,45.7a5.276,5.276,0,0,1,1.139-3.468,3.924,3.924,0,0,1,3.222-1.478,3.435,3.435,0,0,1,3.017,1.478,4.972,4.972,0,0,1,.813,2.9Zm-1.953-.531a2.773,2.773,0,0,0-.4-1.574,1.788,1.788,0,0,0-1.631-.854,1.942,1.942,0,0,0-1.63.834,3.06,3.06,0,0,0-.606,1.592ZM172.483,32.881a13.083,13.083,0,0,1-1.473-.075V26.628a11.152,11.152,0,0,1,1.734-.131c2.349,0,3.43,1.155,3.43,3.038C176.174,31.707,174.9,32.881,172.483,32.881Zm.344-5.591a4.088,4.088,0,0,0-.81.066v4.7a5.313,5.313,0,0,0,.68.028,2.225,2.225,0,0,0,2.415-2.516,2.049,2.049,0,0,0-2.284-2.274Zm6.718,5.638a2.156,2.156,0,0,1-2.181-2.33,2.206,2.206,0,0,1,2.256-2.395,2.139,2.139,0,0,1,2.181,2.321A2.219,2.219,0,0,1,179.544,32.928Zm.038-3.989c-.727,0-1.193.68-1.193,1.63,0,.932.475,1.612,1.183,1.612s1.183-.727,1.183-1.631c0-.922-.466-1.611-1.174-1.611Zm9.765-.642-1.417,4.528h-.923l-.587-1.966a14.92,14.92,0,0,1-.364-1.462h-.019a9.782,9.782,0,0,1-.363,1.462l-.624,1.966h-.933L182.785,28.3h1.034l.513,2.153q.182.769.307,1.454h.019a14.867,14.867,0,0,1,.373-1.444l.643-2.161h.82l.616,2.115q.214.737.364,1.491h.027a13.053,13.053,0,0,1,.307-1.491l.55-2.115Zm5.215,4.528h-1.007v-2.6c0-.8-.307-1.2-.913-1.2a1.045,1.045,0,0,0-1.006,1.109v2.693H190.63V29.591c0-.4-.01-.83-.037-1.3h.886l.047.7h.028a1.627,1.627,0,0,1,1.436-.791c.951,0,1.575.727,1.575,1.91Zm2.776,0h-1.008V26.219h1.008Zm3.67.1a2.156,2.156,0,0,1-2.181-2.33,2.206,2.206,0,0,1,2.255-2.395,2.138,2.138,0,0,1,2.181,2.321A2.218,2.218,0,0,1,201.009,32.928Zm.037-3.989c-.727,0-1.193.68-1.193,1.63,0,.932.476,1.612,1.182,1.612s1.183-.727,1.183-1.631c0-.922-.464-1.611-1.173-1.611Zm6.186,3.886-.073-.521h-.027a1.546,1.546,0,0,1-1.325.624A1.317,1.317,0,0,1,204.42,31.6c0-1.118.969-1.7,2.647-1.7v-.084c0-.6-.316-.895-.94-.895a2.12,2.12,0,0,0-1.183.336l-.2-.661a2.9,2.9,0,0,1,1.555-.392c1.183,0,1.781.624,1.781,1.874v1.668a6.841,6.841,0,0,0,.065,1.081Zm-.138-2.256c-1.118,0-1.679.271-1.679.913a.642.642,0,0,0,.69.708.964.964,0,0,0,.988-.922Zm5.869,2.256-.047-.727h-.028a1.518,1.518,0,0,1-1.454.83,2.064,2.064,0,0,1-1.9-2.311,2.149,2.149,0,0,1,1.983-2.414,1.361,1.361,0,0,1,1.277.616h.02v-2.6h1.008V31.6c0,.438.011.848.037,1.221Zm-.149-2.665a1.1,1.1,0,0,0-1.061-1.174c-.746,0-1.2.662-1.2,1.593,0,.913.473,1.538,1.182,1.538a1.13,1.13,0,0,0,1.08-1.2Zm7.4,2.767a2.155,2.155,0,0,1-2.18-2.329,2.206,2.206,0,0,1,2.255-2.395,2.138,2.138,0,0,1,2.182,2.321,2.218,2.218,0,0,1-2.256,2.4Zm.037-3.989c-.726,0-1.192.68-1.192,1.63,0,.932.475,1.612,1.182,1.612s1.183-.727,1.183-1.631c0-.922-.464-1.611-1.173-1.611Zm7.632,3.886h-1.007v-2.6c0-.8-.307-1.2-.913-1.2a1.045,1.045,0,0,0-1.006,1.109v2.693h-1.008V29.591c0-.4-.01-.83-.037-1.3h.886l.047.7h.028A1.627,1.627,0,0,1,226.3,28.2c.951,0,1.576.727,1.576,1.91Zm6.772-3.774h-1.107v2.2c0,.56.194.839.586.839a1.984,1.984,0,0,0,.447-.047l.028.764a2.229,2.229,0,0,1-.781.112c-.793,0-1.268-.438-1.268-1.584V29.052h-.661V28.3h.661v-.83l.988-.3V28.3h1.107Zm5.328,3.774h-1.006V30.244c0-.81-.306-1.221-.913-1.221a.987.987,0,0,0-1.007,1.072v2.73h-1.006V26.219h1.006v2.72h.02a1.527,1.527,0,0,1,1.362-.737c.958,0,1.544.745,1.544,1.929Zm5.459-2.022h-3.021a1.3,1.3,0,0,0,1.427,1.342,3.4,3.4,0,0,0,1.221-.214l.156.7a3.783,3.783,0,0,1-1.519.279,2.1,2.1,0,0,1-2.255-2.282,2.212,2.212,0,0,1,2.142-2.432,1.9,1.9,0,0,1,1.883,2.153A1.939,1.939,0,0,1,245.439,30.8Zm-.923-.717c0-.7-.353-1.193-1-1.193a1.194,1.194,0,0,0-1.1,1.193Z" transform="translate(-169.812 -26.219)" fill="#fff"/>
    </g>
  </g>
</svg>
