<svg xmlns="http://www.w3.org/2000/svg" width="154.336" height="37.172" viewBox="0 0 154.336 37.172">
  <g id="Group_3577" data-name="Group 3577" transform="translate(-734 -6314.15)">
    <path id="Path_20813" data-name="Path 20813" d="M74.748,43.3A7.874,7.874,0,0,1,78.5,36.7a8.067,8.067,0,0,0-6.353-3.433c-2.672-.281-5.264,1.6-6.626,1.6-1.388,0-3.485-1.572-5.744-1.525a8.459,8.459,0,0,0-7.119,4.341c-3.079,5.329-.782,13.159,2.167,17.466,1.476,2.111,3.2,4.465,5.456,4.382,2.208-.09,3.032-1.406,5.7-1.406,2.64,0,3.414,1.405,5.716,1.353,2.369-.037,3.861-2.119,5.285-4.247A17.414,17.414,0,0,0,79.395,50.3,7.617,7.617,0,0,1,74.748,43.3ZM70.4,30.429a7.749,7.749,0,0,0,1.774-5.554,7.9,7.9,0,0,0-5.106,2.64,7.374,7.374,0,0,0-1.821,5.349A6.522,6.522,0,0,0,70.4,30.429Z" transform="translate(682.805 6289.275)" fill="#040345"/>
    <g id="Group_3479" data-name="Group 3479" transform="translate(788.518 6315.223)">
      <path id="Path_1448" data-name="Path 1448" d="M183.878,57.449h-2.843l-1.558-4.893h-5.413l-1.484,4.893h-2.768l5.365-16.657h3.313Zm-4.87-6.945-1.409-4.35q-.223-.666-.84-3.138h-.05q-.248,1.063-.791,3.138l-1.385,4.35Zm18.64.792a6.8,6.8,0,0,1-1.665,4.843,4.883,4.883,0,0,1-3.7,1.582,3.708,3.708,0,0,1-3.43-1.7v6.3h-2.669V49.386q0-1.925-.1-3.948h2.347l.149,1.9h.05a4.749,4.749,0,0,1,7.6-.472A6.639,6.639,0,0,1,197.648,51.3Zm-2.719.1a4.947,4.947,0,0,0-.791-2.892,2.734,2.734,0,0,0-2.323-1.186,2.776,2.776,0,0,0-1.792.655,3.036,3.036,0,0,0-1.051,1.719,3.485,3.485,0,0,0-.124.812v2a3.212,3.212,0,0,0,.8,2.213,2.669,2.669,0,0,0,2.088.9,2.736,2.736,0,0,0,2.348-1.162A5.114,5.114,0,0,0,194.928,51.394Zm16.538-.1a6.8,6.8,0,0,1-1.665,4.843,4.886,4.886,0,0,1-3.7,1.582,3.708,3.708,0,0,1-3.43-1.7v6.3H200V49.386q0-1.925-.1-3.948h2.347l.149,1.9h.05a4.75,4.75,0,0,1,7.6-.472A6.646,6.646,0,0,1,211.466,51.3Zm-2.721.1a4.95,4.95,0,0,0-.793-2.892,2.73,2.73,0,0,0-2.321-1.186,2.789,2.789,0,0,0-1.794.655,3.032,3.032,0,0,0-1.049,1.719,3.563,3.563,0,0,0-.125.812v2a3.223,3.223,0,0,0,.8,2.213,2.674,2.674,0,0,0,2.091.9,2.732,2.732,0,0,0,2.347-1.162A5.112,5.112,0,0,0,208.745,51.394Zm18.17,1.383a4.45,4.45,0,0,1-1.481,3.461A6.568,6.568,0,0,1,220.9,57.7a7.923,7.923,0,0,1-4.315-1.037l.617-2.224a7.427,7.427,0,0,0,3.856,1.039,3.637,3.637,0,0,0,2.347-.679,2.219,2.219,0,0,0,.843-1.815,2.326,2.326,0,0,0-.694-1.706,6.428,6.428,0,0,0-2.3-1.284q-4.376-1.632-4.377-4.771a4.212,4.212,0,0,1,1.545-3.361,6.11,6.11,0,0,1,4.091-1.311,8.085,8.085,0,0,1,3.782.791l-.67,2.175a6.617,6.617,0,0,0-3.2-.766,3.257,3.257,0,0,0-2.209.692,1.982,1.982,0,0,0-.669,1.51,2.039,2.039,0,0,0,.767,1.631,8.647,8.647,0,0,0,2.421,1.284,8.21,8.21,0,0,1,3.164,2.025A4.22,4.22,0,0,1,226.915,52.777Zm8.848-5.336h-2.942v5.831q0,2.225,1.558,2.223a4.69,4.69,0,0,0,1.186-.124l.074,2.027a6.049,6.049,0,0,1-2.076.3,3.2,3.2,0,0,1-2.473-.965,4.731,4.731,0,0,1-.89-3.238V47.436h-1.753v-2H230.2v-2.2l2.622-.791v2.991h2.942Zm13.249,3.9a6.589,6.589,0,0,1-1.582,4.547,5.642,5.642,0,0,1-4.4,1.829,5.378,5.378,0,0,1-4.215-1.752,6.387,6.387,0,0,1-1.57-4.423,6.534,6.534,0,0,1,1.619-4.571,5.612,5.612,0,0,1,4.364-1.78,5.491,5.491,0,0,1,4.251,1.755,6.306,6.306,0,0,1,1.533,4.4Zm-2.767.061a5.374,5.374,0,0,0-.715-2.834,2.642,2.642,0,0,0-2.4-1.431,2.68,2.68,0,0,0-2.448,1.431,5.465,5.465,0,0,0-.716,2.884,5.361,5.361,0,0,0,.716,2.835,2.738,2.738,0,0,0,4.824-.024A5.394,5.394,0,0,0,246.245,51.406Zm11.447-3.621a4.645,4.645,0,0,0-.841-.074,2.519,2.519,0,0,0-2.176,1.064,4.006,4.006,0,0,0-.666,2.372v6.3h-2.669V49.221q0-1.891-.078-3.781h2.325l.1,2.3h.074a4.123,4.123,0,0,1,1.335-1.9,3.228,3.228,0,0,1,1.929-.643,4.288,4.288,0,0,1,.667.049Zm11.938,3.09a6.258,6.258,0,0,1-.1,1.21h-8.008a3.483,3.483,0,0,0,1.162,2.721,3.973,3.973,0,0,0,2.619.839,8.862,8.862,0,0,0,3.24-.567l.418,1.851a10.017,10.017,0,0,1-4.028.742,5.84,5.84,0,0,1-4.39-1.642,6.07,6.07,0,0,1-1.594-4.411,6.878,6.878,0,0,1,1.485-4.521,5.115,5.115,0,0,1,4.2-1.926A4.477,4.477,0,0,1,268.57,47.1a6.481,6.481,0,0,1,1.059,3.777Zm-2.545-.692a3.615,3.615,0,0,0-.518-2.052,2.331,2.331,0,0,0-2.126-1.114,2.531,2.531,0,0,0-2.125,1.087,3.989,3.989,0,0,0-.79,2.075ZM173.294,34.9a17.055,17.055,0,0,1-1.92-.1V26.752a14.536,14.536,0,0,1,2.26-.17c3.061,0,4.471,1.506,4.471,3.96C178.105,33.373,176.44,34.9,173.294,34.9Zm.448-7.289a5.329,5.329,0,0,0-1.056.085v6.122a6.926,6.926,0,0,0,.886.036c2.006,0,3.148-1.142,3.148-3.279a2.671,2.671,0,0,0-2.978-2.964Zm8.757,7.35a2.81,2.81,0,0,1-2.844-3.037,2.875,2.875,0,0,1,2.941-3.122,2.788,2.788,0,0,1,2.843,3.025A2.892,2.892,0,0,1,182.5,34.964Zm.05-5.2c-.948,0-1.555.886-1.555,2.125,0,1.215.62,2.1,1.542,2.1s1.543-.948,1.543-2.127c0-1.2-.607-2.1-1.53-2.1Zm12.729-.837-1.847,5.9h-1.2l-.765-2.563a19.445,19.445,0,0,1-.475-1.906h-.025a12.752,12.752,0,0,1-.473,1.906l-.814,2.563H188.46l-1.738-5.9h1.348l.669,2.806q.237,1,.4,1.9h.025a19.381,19.381,0,0,1,.486-1.883l.839-2.817h1.069l.8,2.757q.279.961.474,1.944h.035a17.016,17.016,0,0,1,.4-1.944l.717-2.757Zm6.8,5.9h-1.312V31.441c0-1.044-.4-1.567-1.191-1.567a1.363,1.363,0,0,0-1.312,1.446v3.511h-1.312V30.615c0-.522-.013-1.081-.049-1.688h1.154l.061.911h.037a2.121,2.121,0,0,1,1.872-1.031c1.239,0,2.053.948,2.053,2.49Zm3.618,0h-1.314V26.219h1.314Zm4.784.134a2.811,2.811,0,0,1-2.844-3.037,2.875,2.875,0,0,1,2.94-3.122,2.787,2.787,0,0,1,2.843,3.025A2.891,2.891,0,0,1,210.478,34.964Zm.049-5.2c-.948,0-1.555.886-1.555,2.125,0,1.215.621,2.1,1.541,2.1s1.542-.948,1.542-2.127c0-1.2-.6-2.1-1.528-2.1Zm8.064,5.065-.1-.68h-.035a2.016,2.016,0,0,1-1.727.813,1.716,1.716,0,0,1-1.809-1.737c0-1.457,1.264-2.21,3.451-2.21v-.109c0-.777-.412-1.167-1.226-1.167a2.763,2.763,0,0,0-1.542.438l-.267-.862a3.776,3.776,0,0,1,2.027-.511c1.542,0,2.321.814,2.321,2.442v2.174a8.922,8.922,0,0,0,.085,1.409Zm-.181-2.94c-1.457,0-2.188.353-2.188,1.19a.836.836,0,0,0,.9.923,1.256,1.256,0,0,0,1.288-1.2Zm7.65,2.94L226,33.883h-.036a1.979,1.979,0,0,1-1.9,1.082c-1.423,0-2.478-1.252-2.478-3.013,0-1.846,1.093-3.147,2.585-3.147a1.774,1.774,0,0,1,1.665.8h.026V26.219h1.314v7.02c0,.571.014,1.105.049,1.591Zm-.194-3.473a1.428,1.428,0,0,0-1.382-1.531c-.973,0-1.567.862-1.567,2.077,0,1.19.617,2.005,1.541,2.005a1.473,1.473,0,0,0,1.408-1.567Zm9.64,3.607a2.809,2.809,0,0,1-2.842-3.036,2.875,2.875,0,0,1,2.94-3.122,2.787,2.787,0,0,1,2.844,3.025,2.891,2.891,0,0,1-2.941,3.133Zm.049-5.2c-.947,0-1.554.886-1.554,2.125,0,1.215.62,2.1,1.541,2.1s1.542-.948,1.542-2.127c0-1.2-.6-2.1-1.53-2.1Zm9.948,5.066H244.19v-3.39c0-1.044-.4-1.567-1.191-1.567a1.362,1.362,0,0,0-1.311,1.446v3.511h-1.314V30.615c0-.522-.013-1.081-.049-1.688h1.154l.061.911h.036a2.121,2.121,0,0,1,1.871-1.032c1.239,0,2.054.947,2.054,2.489Zm8.828-4.919h-1.444v2.866c0,.73.253,1.094.764,1.094a2.586,2.586,0,0,0,.582-.061l.036,1a2.905,2.905,0,0,1-1.018.146c-1.034,0-1.653-.571-1.653-2.065V29.911h-.862v-.984h.862V27.846l1.288-.389v1.47h1.443Zm6.946,4.919h-1.311V31.466c0-1.056-.4-1.591-1.191-1.591a1.287,1.287,0,0,0-1.313,1.4v3.558h-1.311V26.219h1.311v3.546h.026a1.991,1.991,0,0,1,1.775-.96c1.249,0,2.013.971,2.013,2.515Zm7.117-2.636h-3.938a1.694,1.694,0,0,0,1.86,1.749,4.437,4.437,0,0,0,1.591-.279l.2.911a4.931,4.931,0,0,1-1.98.364,2.741,2.741,0,0,1-2.94-2.975,2.883,2.883,0,0,1,2.792-3.171c1.508,0,2.455,1.118,2.455,2.806A2.529,2.529,0,0,1,268.394,32.194Zm-1.2-.935c0-.911-.46-1.555-1.3-1.555a1.556,1.556,0,0,0-1.435,1.555Z" transform="translate(-169.812 -26.219)" fill="#040345"/>
    </g>
  </g>
</svg>
