<svg xmlns="http://www.w3.org/2000/svg" xmlns:xlink="http://www.w3.org/1999/xlink" width="1916.82" height="901.874" viewBox="0 0 1916.82 901.874">
  <defs>
    <clipPath id="clip-path">
      <rect id="Kart_Shape" data-name="Kart Shape" width="901.874" height="1916.82" rx="70" transform="translate(0 901.874) rotate(-90)" fill="#450e87"/>
    </clipPath>
  </defs>
  <g id="Group_319" data-name="Group 319" transform="translate(1916.82 904.779) rotate(180)" opacity="0.3">
    <g id="Group_283" data-name="Group 283" transform="translate(0 2.905)" opacity="0.75" clip-path="url(#clip-path)">
      <g id="Group_282" data-name="Group 282" transform="translate(602.199 -947.407)">
        <path id="Path_677" data-name="Path 677" d="M506.134,127.514c-20.1-47.12-56.011-85.159-101.123-107.115C354.048-4.392,295.556-6.631,235.819,13.925L0,95.787,206.3,577.464l69.8-24.235L294.653,407.06l95.367-33.1c59.524-20.665,101.224-57.44,120.6-106.367C527.771,224.272,526.186,174.525,506.134,127.514Z" transform="translate(0 1343.504)" fill="#450e87"/>
        <path id="Path_678" data-name="Path 678" d="M506.134,127.514c-20.1-47.12-56.011-85.159-101.123-107.115C354.048-4.392,295.556-6.631,235.819,13.925L0,95.787,206.3,577.464l69.8-24.235L294.653,407.06l95.367-33.1c59.524-20.665,101.224-57.44,120.6-106.367C527.771,224.272,526.186,174.525,506.134,127.514Z" transform="translate(165.637)" fill="#450e87"/>
        <path id="Path_679" data-name="Path 679" d="M506.134,127.514c-20.1-47.12-56.011-85.159-101.123-107.115C354.048-4.392,295.556-6.631,235.819,13.925L0,95.787,206.3,577.464l69.8-24.235L294.653,407.06l95.367-33.1c59.524-20.665,101.224-57.44,120.6-106.367C527.771,224.272,526.186,174.525,506.134,127.514Z" transform="translate(611.585 1957.186)" fill="#450e87"/>
        <path id="Path_680" data-name="Path 680" d="M506.134,127.514c-20.1-47.12-56.011-85.159-101.123-107.115C354.048-4.392,295.556-6.631,235.819,13.925L0,95.787,206.3,577.464l69.8-24.235L294.653,407.06l95.367-33.1c59.524-20.665,101.224-57.44,120.6-106.367C527.771,224.272,526.186,174.525,506.134,127.514Z" transform="translate(777.222 613.682)" fill="#450e87"/>
        <path id="Path_681" data-name="Path 681" d="M506.134,127.514c-20.1-47.12-56.011-85.159-101.123-107.115C354.048-4.392,295.556-6.631,235.819,13.925L0,95.787,206.3,577.464l69.8-24.235L294.653,407.06l95.367-33.1c59.524-20.665,101.224-57.44,120.6-106.367C527.771,224.272,526.186,174.525,506.134,127.514Z" transform="translate(387.314 973.115)" fill="#450e87"/>
        <path id="Path_682" data-name="Path 682" d="M506.134,127.514c-20.1-47.12-56.011-85.159-101.123-107.115C354.048-4.392,295.556-6.631,235.819,13.925L0,95.787,206.3,577.464l69.8-24.235L294.653,407.06l95.367-33.1c59.524-20.665,101.224-57.44,120.6-106.367C527.771,224.272,526.186,174.525,506.134,127.514Z" transform="translate(998.899 1586.797)" fill="#450e87"/>
        <path id="Path_683" data-name="Path 683" d="M506.134,127.514C486.04,80.394,450.123,42.354,405.011,20.4,354.048-4.392,295.556-6.631,235.819,13.925L0,95.787,206.3,577.464l69.8-24.235L294.654,407.06l95.367-33.1c59.524-20.665,101.224-57.44,120.6-106.367C527.771,224.271,526.186,174.525,506.134,127.514Z" transform="translate(632.592 2327.001) rotate(180)" fill="#450e87"/>
        <path id="Path_684" data-name="Path 684" d="M506.134,127.514C486.04,80.394,450.123,42.354,405.011,20.4,354.048-4.392,295.556-6.631,235.819,13.925L0,95.787,206.3,577.464l69.8-24.235L294.654,407.06l95.367-33.1c59.524-20.665,101.224-57.44,120.6-106.367C527.771,224.271,526.186,174.525,506.134,127.514Z" transform="translate(798.23 983.497) rotate(180)" fill="#450e87"/>
        <path id="Path_685" data-name="Path 685" d="M506.134,127.514C486.04,80.394,450.123,42.354,405.011,20.4,354.048-4.392,295.556-6.631,235.819,13.925L0,95.787,206.3,577.464l69.8-24.235L294.654,407.06l95.367-33.1c59.524-20.665,101.224-57.44,120.6-106.367C527.771,224.271,526.186,174.525,506.134,127.514Z" transform="translate(1409.815 1597.178) rotate(180)" fill="#450e87"/>
        <path id="Path_686" data-name="Path 686" d="M506.134,127.514C486.04,80.394,450.123,42.354,405.011,20.4,354.048-4.392,295.556-6.631,235.819,13.925L0,95.787,206.3,577.464l69.8-24.235L294.654,407.06l95.367-33.1c59.524-20.665,101.224-57.44,120.6-106.367C527.771,224.271,526.186,174.525,506.134,127.514Z" transform="translate(1019.91 1956.612) rotate(180)" fill="#450e87"/>
        <path id="Path_687" data-name="Path 687" d="M506.134,127.514C486.04,80.394,450.123,42.354,405.011,20.4,354.048-4.392,295.556-6.631,235.819,13.925L0,95.787,206.3,577.464l69.8-24.235L294.654,407.06l95.367-33.1c59.524-20.665,101.224-57.44,120.6-106.367C527.771,224.271,526.186,174.525,506.134,127.514Z" transform="translate(1185.547 613.108) rotate(180)" fill="#450e87"/>
        <path id="Path_688" data-name="Path 688" d="M506.134,127.514C486.04,80.394,450.123,42.354,405.011,20.4,354.048-4.392,295.556-6.631,235.819,13.925L0,95.787,206.3,577.464l69.8-24.235L294.654,407.06l95.367-33.1c59.524-20.665,101.224-57.44,120.6-106.367C527.771,224.271,526.186,174.525,506.134,127.514Z" transform="translate(1631.495 2570.294) rotate(180)" fill="#450e87"/>
        <path id="Path_689" data-name="Path 689" d="M506.134,127.514c-20.1-47.12-56.011-85.159-101.123-107.115C354.048-4.392,295.556-6.631,235.819,13.925L0,95.787,206.3,577.464l69.8-24.235L294.653,407.06l95.367-33.1c59.524-20.665,101.224-57.44,120.6-106.367C527.771,224.272,526.186,174.525,506.134,127.514Z" transform="translate(1164.536 243.293)" fill="#450e87"/>
        <path id="Path_690" data-name="Path 690" d="M506.134,127.514C486.04,80.394,450.123,42.354,405.011,20.4,354.048-4.392,295.556-6.631,235.819,13.925L0,95.787,206.3,577.464l69.8-24.235L294.654,407.06l95.367-33.1c59.524-20.665,101.224-57.44,120.6-106.367C527.771,224.271,526.186,174.525,506.134,127.514Z" transform="translate(1797.132 1226.789) rotate(180)" fill="#450e87"/>
      </g>
      <g id="Group_3411" data-name="Group 3411" transform="translate(-779.801 -811.466)">
        <path id="Path_677-2" data-name="Path 677" d="M506.134,127.514c-20.1-47.12-56.011-85.159-101.123-107.115C354.048-4.392,295.556-6.631,235.819,13.925L0,95.787,206.3,577.464l69.8-24.235L294.653,407.06l95.367-33.1c59.524-20.665,101.224-57.44,120.6-106.367C527.771,224.272,526.186,174.525,506.134,127.514Z" transform="translate(0 1343.504)" fill="#450e87"/>
        <path id="Path_678-2" data-name="Path 678" d="M506.134,127.514c-20.1-47.12-56.011-85.159-101.123-107.115C354.048-4.392,295.556-6.631,235.819,13.925L0,95.787,206.3,577.464l69.8-24.235L294.653,407.06l95.367-33.1c59.524-20.665,101.224-57.44,120.6-106.367C527.771,224.272,526.186,174.525,506.134,127.514Z" transform="translate(165.637)" fill="#450e87"/>
        <path id="Path_679-2" data-name="Path 679" d="M506.134,127.514c-20.1-47.12-56.011-85.159-101.123-107.115C354.048-4.392,295.556-6.631,235.819,13.925L0,95.787,206.3,577.464l69.8-24.235L294.653,407.06l95.367-33.1c59.524-20.665,101.224-57.44,120.6-106.367C527.771,224.272,526.186,174.525,506.134,127.514Z" transform="translate(611.585 1957.186)" fill="#450e87"/>
        <path id="Path_680-2" data-name="Path 680" d="M506.134,127.514c-20.1-47.12-56.011-85.159-101.123-107.115C354.048-4.392,295.556-6.631,235.819,13.925L0,95.787,206.3,577.464l69.8-24.235L294.653,407.06l95.367-33.1c59.524-20.665,101.224-57.44,120.6-106.367C527.771,224.272,526.186,174.525,506.134,127.514Z" transform="translate(777.222 613.682)" fill="#450e87"/>
        <path id="Path_681-2" data-name="Path 681" d="M506.134,127.514c-20.1-47.12-56.011-85.159-101.123-107.115C354.048-4.392,295.556-6.631,235.819,13.925L0,95.787,206.3,577.464l69.8-24.235L294.653,407.06l95.367-33.1c59.524-20.665,101.224-57.44,120.6-106.367C527.771,224.272,526.186,174.525,506.134,127.514Z" transform="translate(387.314 973.115)" fill="#450e87"/>
        <path id="Path_682-2" data-name="Path 682" d="M506.134,127.514c-20.1-47.12-56.011-85.159-101.123-107.115C354.048-4.392,295.556-6.631,235.819,13.925L0,95.787,206.3,577.464l69.8-24.235L294.653,407.06l95.367-33.1c59.524-20.665,101.224-57.44,120.6-106.367C527.771,224.272,526.186,174.525,506.134,127.514Z" transform="translate(998.899 1586.797)" fill="#450e87"/>
        <path id="Path_683-2" data-name="Path 683" d="M506.134,127.514C486.04,80.394,450.123,42.354,405.011,20.4,354.048-4.392,295.556-6.631,235.819,13.925L0,95.787,206.3,577.464l69.8-24.235L294.654,407.06l95.367-33.1c59.524-20.665,101.224-57.44,120.6-106.367C527.771,224.271,526.186,174.525,506.134,127.514Z" transform="translate(632.592 2327.001) rotate(180)" fill="#450e87"/>
        <path id="Path_684-2" data-name="Path 684" d="M506.134,127.514C486.04,80.394,450.123,42.354,405.011,20.4,354.048-4.392,295.556-6.631,235.819,13.925L0,95.787,206.3,577.464l69.8-24.235L294.654,407.06l95.367-33.1c59.524-20.665,101.224-57.44,120.6-106.367C527.771,224.271,526.186,174.525,506.134,127.514Z" transform="translate(798.23 983.497) rotate(180)" fill="#450e87"/>
        <path id="Path_685-2" data-name="Path 685" d="M506.134,127.514C486.04,80.394,450.123,42.354,405.011,20.4,354.048-4.392,295.556-6.631,235.819,13.925L0,95.787,206.3,577.464l69.8-24.235L294.654,407.06l95.367-33.1c59.524-20.665,101.224-57.44,120.6-106.367C527.771,224.271,526.186,174.525,506.134,127.514Z" transform="translate(1409.815 1597.178) rotate(180)" fill="#450e87"/>
        <path id="Path_686-2" data-name="Path 686" d="M506.134,127.514C486.04,80.394,450.123,42.354,405.011,20.4,354.048-4.392,295.556-6.631,235.819,13.925L0,95.787,206.3,577.464l69.8-24.235L294.654,407.06l95.367-33.1c59.524-20.665,101.224-57.44,120.6-106.367C527.771,224.271,526.186,174.525,506.134,127.514Z" transform="translate(1019.91 1956.612) rotate(180)" fill="#450e87"/>
        <path id="Path_687-2" data-name="Path 687" d="M506.134,127.514C486.04,80.394,450.123,42.354,405.011,20.4,354.048-4.392,295.556-6.631,235.819,13.925L0,95.787,206.3,577.464l69.8-24.235L294.654,407.06l95.367-33.1c59.524-20.665,101.224-57.44,120.6-106.367C527.771,224.271,526.186,174.525,506.134,127.514Z" transform="translate(1185.547 613.108) rotate(180)" fill="#450e87"/>
        <path id="Path_688-2" data-name="Path 688" d="M506.134,127.514C486.04,80.394,450.123,42.354,405.011,20.4,354.048-4.392,295.556-6.631,235.819,13.925L0,95.787,206.3,577.464l69.8-24.235L294.654,407.06l95.367-33.1c59.524-20.665,101.224-57.44,120.6-106.367C527.771,224.271,526.186,174.525,506.134,127.514Z" transform="translate(1631.495 2570.294) rotate(180)" fill="#450e87"/>
        <path id="Path_689-2" data-name="Path 689" d="M506.134,127.514c-20.1-47.12-56.011-85.159-101.123-107.115C354.048-4.392,295.556-6.631,235.819,13.925L0,95.787,206.3,577.464l69.8-24.235L294.653,407.06l95.367-33.1c59.524-20.665,101.224-57.44,120.6-106.367C527.771,224.272,526.186,174.525,506.134,127.514Z" transform="translate(1164.536 243.293)" fill="#450e87"/>
        <path id="Path_690-2" data-name="Path 690" d="M506.134,127.514C486.04,80.394,450.123,42.354,405.011,20.4,354.048-4.392,295.556-6.631,235.819,13.925L0,95.787,206.3,577.464l69.8-24.235L294.654,407.06l95.367-33.1c59.524-20.665,101.224-57.44,120.6-106.367C527.771,224.271,526.186,174.525,506.134,127.514Z" transform="translate(1797.132 1226.789) rotate(180)" fill="#450e87"/>
      </g>
    </g>
  </g>
</svg>
