<svg id="Card_-_Icon" data-name="Card - Icon" xmlns="http://www.w3.org/2000/svg" width="26.427" height="17.209" viewBox="0 0 26.427 17.209">
  <path id="Path_475" data-name="Path 475" d="M2.175,0H24.252a2.175,2.175,0,0,1,2.175,2.175V15.034a2.175,2.175,0,0,1-2.175,2.175H2.175A2.175,2.175,0,0,1,0,15.034V2.175A2.175,2.175,0,0,1,2.175,0Z" transform="translate(0 0)" fill="#450d87"/>
  <path id="Path_369" data-name="Path 369" d="M358.444-159.649" transform="translate(-346.896 163.498)" fill="none" stroke="#fff" stroke-width="35"/>
  <path id="Path_370" data-name="Path 370" d="M271.934-51.562l-20.821-.105a.675.675,0,0,1-.673-.677l0-.621a.675.675,0,0,1,.677-.673l20.821.105a.675.675,0,0,1,.673.677l0,.621A.675.675,0,0,1,271.934-51.562Z" transform="translate(-248.022 66.449)" fill="#00b7b3"/>
  <circle id="Ellipse_10" data-name="Ellipse 10" cx="2.139" cy="2.139" r="2.139" transform="translate(18.786 5.661) rotate(-70.973)" fill="#fff"/>
</svg>
