<svg id="Para_Al_Icon" data-name="Para Al Icon" xmlns="http://www.w3.org/2000/svg" width="42.194" height="29.412" viewBox="0 0 42.194 29.412">
  <g id="Group_70" data-name="Group 70" transform="translate(0 0.276)">
    <g id="Group_69" data-name="Group 69">
      <path id="Path_305" data-name="Path 305" d="M865.5,194.2l.217-3,.027-.376.012-.153.017-.179a3.3,3.3,0,0,1,.058-.355,4.063,4.063,0,0,1,.533-1.326,3.977,3.977,0,0,1,2.183-1.687l.167-.051c.056-.014.113-.026.17-.039a2.98,2.98,0,0,1,.342-.059c.115-.011.23-.029.344-.029l.172,0h.161l.751.054,1.5.108,3,.217,7.862.567c-.367-1.093-.768-2.177-1.224-3.237a10.719,10.719,0,0,0-1.6-2.945,10.152,10.152,0,0,0-3.279-2.107l-19,.073a2.128,2.128,0,0,0-2.12,2.136l.059,15.44a2.128,2.128,0,0,0,2.136,2.12l7.143-.028Z" transform="translate(-855.79 -179.596)" fill="#5f3096"/>
      <path id="Path_306" data-name="Path 306" d="M1015.429,287.673a2.372,2.372,0,0,1-2.011-1.387,6.31,6.31,0,0,1-.389-1.145l-8.5.413-3.009.146-1.5.073-.752.037h-.014l0,0-.008,0-.016.006c-.011,0-.019.013-.029.015s-.017.012-.025.017l-.012.007-.01.012a.253.253,0,0,0-.09.184.176.176,0,0,0,.02.078c0,.006,0,.01.009.017a.043.043,0,0,1,.005.009v0s0,0,0,.007v.023l.018.376.146,3.009.246,5.071,13.877-.053a2.127,2.127,0,0,0,2.12-2.136l-.018-4.784Z" transform="translate(-985.195 -274.93)" fill="#5f3096"/>
    </g>
    <circle id="Ellipse_6" data-name="Ellipse 6" cx="2.449" cy="2.449" r="2.449" transform="translate(2.781 3.073) rotate(-10.776)" fill="#fff"/>
  </g>
  <path id="Path_474" data-name="Path 474" d="M2.827,0H27.419a2.827,2.827,0,0,1,2.827,2.827V16.869A2.827,2.827,0,0,1,27.419,19.7H2.827A2.827,2.827,0,0,1,0,16.869V2.827A2.827,2.827,0,0,1,2.827,0Z" transform="translate(11.95 9.363) rotate(0.67)" fill="#450d87"/>
  <path id="Path_307" data-name="Path 307" d="M1030.559,428.145l-23.827-.395a.773.773,0,0,1-.762-.784l.01-.711a.773.773,0,0,1,.784-.762l23.827.395a.773.773,0,0,1,.762.784l-.01.711A.773.773,0,0,1,1030.559,428.145Z" transform="translate(-991.441 -401.428)" fill="#5f3096"/>
  <rect id="Rectangle_20" data-name="Rectangle 20" width="1.104" height="2.774" transform="translate(28.917 10.683) rotate(-89.33)" fill="#4643d3"/>
  <circle id="Ellipse_7" data-name="Ellipse 7" cx="2.449" cy="2.449" r="2.449" transform="translate(33.716 16.666) rotate(-81.395)" fill="#fff"/>
  <path id="Path_308" data-name="Path 308" d="M1051.479,186.248c.014-4.055-1.705-5.932-1.778-6.009a9.779,9.779,0,0,0-8.846-3.4l-.819.163.719.424c5.483,3.229,5.2,7.75,5.036,8.851l-4.344.02,7.222,7.143,7.088-7.209Z" transform="translate(-1022.211 -176.74)" fill="#00b7b3"/>
  <g id="Group_71" data-name="Group 71" transform="translate(2.153 15.067)">
    <path id="Path_309" data-name="Path 309" d="M885.583,332.473l-6.775.059a.772.772,0,0,0-.767.778l0,.711a.773.773,0,0,0,.777.768l6.6-.058Z" transform="translate(-878.041 -332.473)" fill="#450d87"/>
  </g>
</svg>
