<svg version="1.1" id="Layer_1" xmlns="http://www.w3.org/2000/svg" xmlns:xlink="http://www.w3.org/1999/xlink" x="0px" y="0px"
	 viewBox="0 0 30 30" style="enable-background:new 0 0 26 18.6;" xml:space="preserve">
<style type="text/css">
	.st0{clip-path:url(#SVGID_00000180344155361469371820000009794461800228570541_);}
	.st1{fill:#FFFFFF;}
	.st2{fill:#253773;}
	.st3{clip-path:url(#SVGID_00000138569802920193138570000014351862855916124041_);}
	.st4{clip-path:url(#SVGID_00000154427260713719137310000003334778715941408900_);}
	.st5{fill:none;stroke:#D0122A;stroke-width:0.667;stroke-linecap:round;stroke-miterlimit:10;}
	.st6{clip-path:url(#SVGID_00000052808047747394351100000001030421321901538732_);}
	.st7{fill:#DC0C31;}
</style>
<g transform="translate(-291.549 -540.698)">
	<g transform="translate(291.549 779.552)">
		<g transform="translate(0 1.5)">
			<g transform="translate(36.5 11)">
				<g>
					<g>
						<g>
							<defs>
								<path id="SVGID_1_" d="M-34.6-251.3h22.3c1,0,1.9,0.8,1.9,1.9v14.9c0,1-0.8,1.9-1.9,1.9l0,0h-22.3c-1,0-1.8-0.8-1.8-1.9
									v-14.9C-36.5-250.5-35.7-251.3-34.6-251.3z"/>
							</defs>
							<clipPath id="SVGID_00000147917359878713643960000016364191126986509491_">
								<use xlink:href="#SVGID_1_"  style="overflow:visible;"/>
							</clipPath>
							<g id="Group_41344" style="clip-path:url(#SVGID_00000147917359878713643960000016364191126986509491_);">
								<rect id="Rectangle_7059" x="-41.1" y="-255.9" class="st1" width="35.3" height="27.9"/>
								<rect id="Rectangle_7060" x="-41.1" y="-255.9" class="st2" width="35.3" height="27.9"/>
							</g>
						</g>
					</g>
				</g>
				<g>
					<g>
						<g>
							<defs>
								<path id="SVGID_00000099655378587618017800000012095948928107651221_" d="M-26.6-251.3v5.7l-8.4-5.7
									c-0.9,0.2-1.5,0.9-1.5,1.8v0.2l6.2,4.2h-6.2v6.2h6.2l-6.2,4.2v0.2c0,0.9,0.6,1.6,1.5,1.8l8.4-5.7v5.7h6.2v-5.7l8.4,5.7
									c0.9-0.2,1.5-0.9,1.5-1.8v-0.2l-6.2-4.2h6.2v-6.2h-6.2l6.2-4.2v-0.2c0-0.9-0.6-1.6-1.5-1.8l-8.4,5.7v-5.7L-26.6-251.3
									L-26.6-251.3z"/>
							</defs>
							<clipPath id="SVGID_00000033341855006320675140000006520137272906954148_">
								<use xlink:href="#SVGID_00000099655378587618017800000012095948928107651221_"  style="overflow:visible;"/>
							</clipPath>
							<g style="clip-path:url(#SVGID_00000033341855006320675140000006520137272906954148_);">
								<rect x="-43.7" y="-257.7" class="st1" width="40.5" height="31.4"/>
							</g>
						</g>
					</g>
				</g>
				<g id="Group_41349">
					<g>
						<g>
							<defs>
								<path id="SVGID_00000034086325119989006030000005393889057654974620_" d="M-34.6-251.3h22.3c1,0,1.9,0.8,1.9,1.9v14.9
									c0,1-0.8,1.9-1.9,1.9l0,0h-22.3c-1,0-1.8-0.8-1.8-1.9v-14.9C-36.5-250.5-35.7-251.3-34.6-251.3z"/>
							</defs>
							<clipPath id="SVGID_00000150073737738767071960000006465345031720893106_">
								<use xlink:href="#SVGID_00000034086325119989006030000005393889057654974620_"  style="overflow:visible;"/>
							</clipPath>
							<g id="Group_41348" style="clip-path:url(#SVGID_00000150073737738767071960000006465345031720893106_);">
								<line id="Line_23" class="st5" x1="-19.1" y1="-245.4" x2="-7.4" y2="-253.1"/>
								<line id="Line_24" class="st5" x1="-17.9" y1="-238.6" x2="-7.4" y2="-231.5"/>
								<line id="Line_25" class="st5" x1="-29.1" y1="-245.4" x2="-40.1" y2="-252.8"/>
								<line id="Line_26" class="st5" x1="-27.9" y1="-238.7" x2="-40.1" y2="-230.6"/>
							</g>
						</g>
					</g>
				</g>
				<g>
					<g>
						<g>
							<defs>
								<polygon id="SVGID_00000002341969766804209490000000207572624123321762_" points="-25.3,-251.3 -25.3,-243.9 -36.5,-243.9 
									-36.5,-240.1 -25.3,-240.1 -25.3,-232.7 -21.6,-232.7 -21.6,-240.1 -10.5,-240.1 -10.5,-243.9 -21.6,-243.9 -21.6,-251.3 
																	"/>
							</defs>
							<clipPath id="SVGID_00000070802673638397699250000011400410440667159698_">
								<use xlink:href="#SVGID_00000002341969766804209490000000207572624123321762_"  style="overflow:visible;"/>
							</clipPath>
							<g style="clip-path:url(#SVGID_00000070802673638397699250000011400410440667159698_);">
								<rect x="-41.1" y="-255.9" class="st7" width="35.3" height="27.9"/>
							</g>
						</g>
					</g>
				</g>
			</g>
		</g>
	</g>
</g>
</svg>
