<svg xmlns="http://www.w3.org/2000/svg" width="154.748" height="25.791" viewBox="0 0 154.748 25.791">
  <g id="g10" transform="translate(0 -153.163)" opacity="0.6">
    <g id="g12" transform="translate(0 153.163)">
      <g id="Group_3490" data-name="Group 3490">
        <g id="g14">
          <g id="g20" transform="translate(0 0.001)">
            <path id="path22" d="M14.452,171.039v4.36H17.83a.438.438,0,0,0,.436-.436v-3.924Zm-4.518,0v3.924a.438.438,0,0,0,.436.436h3.425v-4.36Zm3.861-4.931v-9.4H5.021a.7.7,0,0,0-.7.7v3.1a.7.7,0,0,0,.7.7H9.926l0,4.912.959,0Zm4.452,0V161.2h5.03a.7.7,0,0,0,.695-.7v-3.1a.7.7,0,0,0-.695-.7H14.452v9.4h2.832ZM4.859,161.746a.584.584,0,0,0-.583.583v12.5a.585.585,0,0,0,.583.584H9.278v-4.887H18.92v4.887h4.419a.586.586,0,0,0,.583-.584v-12.5a.585.585,0,0,0-.583-.583H18.92v4.887H9.278v-4.887Zm-1.634-8.582h21.8a3.234,3.234,0,0,1,3.224,3.223V175.73a3.234,3.234,0,0,1-3.224,3.224H3.224A3.234,3.234,0,0,1,0,175.73V156.387a3.234,3.234,0,0,1,3.224-3.223" transform="translate(0 -153.164)" fill="#fff"/>
          </g>
          <g id="g24" transform="translate(46.963 3.783)">
            <path id="path26" d="M94.3,161.967v6.4h-1.77v-6.4H90.286v-1.532h6.263v1.532Z" transform="translate(-90.286 -160.435)" fill="#fff"/>
          </g>
          <g id="g28" transform="translate(53.885 3.783)">
            <path id="path30" d="M105.8,166.318a1.449,1.449,0,0,0,1.191.551,1.432,1.432,0,0,0,1.185-.551,2.352,2.352,0,0,0,.437-1.5v-4.38h1.77v4.436a3.525,3.525,0,0,1-.953,2.65,3.682,3.682,0,0,1-4.884-.006,3.516,3.516,0,0,1-.959-2.643v-4.436h1.77v4.38a2.335,2.335,0,0,0,.443,1.5" transform="translate(-103.592 -160.435)" fill="#fff"/>
          </g>
          <g id="g32" transform="translate(61.997 3.783)">
            <path id="path34" d="M122.251,164.3a1.9,1.9,0,0,0,1.236-.3,1.2,1.2,0,0,0,.329-.936,1,1,0,0,0-.34-.879,2.181,2.181,0,0,0-1.191-.238h-1.327V164.3Zm3.37-1.237a2.336,2.336,0,0,1-1.509,2.462l2.008,2.836h-2.178l-1.759-2.529h-1.225v2.529h-1.77v-7.93h3.007a4.314,4.314,0,0,1,2.639.624,2.409,2.409,0,0,1,.788,2.008" transform="translate(-119.187 -160.435)" fill="#fff"/>
          </g>
          <g id="g36" transform="translate(69.61 3.783)">
            <path id="path38" d="M136.036,166.318a1.448,1.448,0,0,0,1.191.551,1.433,1.433,0,0,0,1.185-.551,2.349,2.349,0,0,0,.437-1.5v-4.38h1.77v4.436a3.523,3.523,0,0,1-.953,2.65,3.682,3.682,0,0,1-4.884-.006,3.512,3.512,0,0,1-.959-2.643v-4.436h1.77v4.38a2.329,2.329,0,0,0,.443,1.5" transform="translate(-133.824 -160.435)" fill="#fff"/>
          </g>
          <g id="g40" transform="translate(77.722 3.783)">
            <path id="path42" d="M154.968,160.435h1.769v7.93h-1.769l-3.778-4.969v4.969h-1.77v-7.93h1.656l3.892,5.105Z" transform="translate(-149.419 -160.435)" fill="#fff"/>
          </g>
          <g id="g44" transform="translate(85.993 3.602)">
            <path id="path46" d="M169.438,166.634a2.609,2.609,0,0,0,2.132-1.032l1.135,1.168a4.278,4.278,0,0,1-6.2.363,4.192,4.192,0,0,1,.023-5.865,4.071,4.071,0,0,1,2.956-1.179,4.188,4.188,0,0,1,3.267,1.485l-1.1,1.248a2.578,2.578,0,0,0-2.088-1.043,2.437,2.437,0,0,0-1.708.652,2.276,2.276,0,0,0-.708,1.758,2.391,2.391,0,0,0,.671,1.776,2.2,2.2,0,0,0,1.621.67" transform="translate(-165.32 -160.088)" fill="#fff"/>
          </g>
          <g id="g48" transform="translate(94.14 3.783)">
            <path id="path50" d="M183.193,166.318a1.449,1.449,0,0,0,1.191.551,1.429,1.429,0,0,0,1.185-.551,2.349,2.349,0,0,0,.438-1.5v-4.38h1.77v4.436a3.525,3.525,0,0,1-.953,2.65,3.683,3.683,0,0,1-4.885-.006,3.518,3.518,0,0,1-.958-2.643v-4.436h1.769v4.38a2.335,2.335,0,0,0,.442,1.5" transform="translate(-180.982 -160.435)" fill="#fff"/>
          </g>
          <g id="g52" transform="translate(105.247 3.783)">
            <path id="path54" d="M207.26,160.435h1.769v7.93H207.26v-3.12H204.1v3.12h-1.769v-7.93H204.1v3.313h3.156Z" transform="translate(-202.335 -160.435)" fill="#fff"/>
          </g>
          <g id="g56" transform="translate(112.916 3.602)">
            <path id="path58" d="M224.2,167.1a4.32,4.32,0,0,1-5.922,0,4.149,4.149,0,0,1,0-5.842,4.321,4.321,0,0,1,5.922,0,4.147,4.147,0,0,1,0,5.842m-.6-2.915a2.592,2.592,0,0,0-.681-1.81,2.246,2.246,0,0,0-3.347,0,2.743,2.743,0,0,0,0,3.614,2.258,2.258,0,0,0,3.347,0,2.573,2.573,0,0,0,.681-1.8" transform="translate(-217.079 -160.087)" fill="#fff"/>
          </g>
          <g id="g60" transform="translate(122.22 3.783)">
            <path id="path62" d="M234.965,168.365v-7.93h1.771v6.354h3.38v1.577Z" transform="translate(-234.965 -160.435)" fill="#fff"/>
          </g>
          <g id="g64" transform="translate(128.143 3.783)">
            <path id="path66" d="M249.244,166.8a2.624,2.624,0,0,0,1.866-.613,2.322,2.322,0,0,0,.653-1.782,2.381,2.381,0,0,0-.653-1.8,2.787,2.787,0,0,0-2-.629h-.986V166.8Zm-.09-6.365a4.659,4.659,0,0,1,3.257,1.039,3.722,3.722,0,0,1,1.134,2.887,3.9,3.9,0,0,1-1.106,2.927,4.669,4.669,0,0,1-3.375,1.078h-2.711v-7.931Z" transform="translate(-246.352 -160.435)" fill="#fff"/>
          </g>
          <g id="g68" transform="translate(135.959 3.125)">
            <path id="path70" d="M261.668,160.878a1.016,1.016,0,1,1,.708.289.967.967,0,0,1-.708-.289m1.559,6.881h-1.7v-6.1h1.7Z" transform="translate(-261.378 -159.171)" fill="#fff"/>
          </g>
          <g id="g72" transform="translate(139.069 3.783)">
            <path id="path74" d="M272.9,160.435h1.771v7.93H272.9l-3.778-4.969v4.969h-1.77v-7.93h1.658l3.89,5.105Z" transform="translate(-267.356 -160.435)" fill="#fff"/>
          </g>
          <g id="g76" transform="translate(147.364 3.602)">
            <path id="path78" d="M288.906,164.161h1.781v2.813a4.161,4.161,0,0,1-3.268,1.316,4.031,4.031,0,0,1-2.932-1.158,4.192,4.192,0,0,1,.023-5.865,4.02,4.02,0,0,1,2.914-1.179,4.31,4.31,0,0,1,2.968,1.123l-.919,1.326a3.518,3.518,0,0,0-.983-.64,2.628,2.628,0,0,0-.968-.175,2.328,2.328,0,0,0-1.7.686,2.739,2.739,0,0,0-.029,3.609,2.148,2.148,0,0,0,1.583.675,3.034,3.034,0,0,0,1.531-.352Z" transform="translate(-283.303 -160.088)" fill="#fff"/>
          </g>
          <g id="g80" transform="translate(48.065 17.754)">
            <path id="path82" d="M96.085,191.227h-.411a.181.181,0,0,1-.116-.036.227.227,0,0,1-.066-.089l-.367-.951H93.36l-.367.951a.19.19,0,0,1-.063.086.174.174,0,0,1-.115.039H92.4l1.571-3.932h.538Zm-1.108-1.46-.618-1.6c-.018-.047-.037-.1-.057-.166s-.04-.129-.058-.2a2.983,2.983,0,0,1-.118.37l-.618,1.6Z" transform="translate(-92.403 -187.295)" fill="#fff"/>
          </g>
          <g id="g84" transform="translate(54.153 17.755)">
            <path id="path86" d="M107.293,187.3v3.931h-.266a.217.217,0,0,1-.105-.022.3.3,0,0,1-.085-.073l-2.275-2.964c0,.046.007.091.008.135s0,.085,0,.123v2.8h-.467V187.3h.275a.412.412,0,0,1,.06,0,.206.206,0,0,1,.044.014.168.168,0,0,1,.038.028.326.326,0,0,1,.042.047l2.275,2.96c0-.048-.007-.093-.009-.139s0-.086,0-.127V187.3Z" transform="translate(-104.107 -187.296)" fill="#fff"/>
          </g>
          <g id="g88" transform="translate(59.987 17.71)">
            <path id="path90" d="M118.654,189.221a1.992,1.992,0,0,0-.1-.65,1.363,1.363,0,0,0-.28-.487,1.219,1.219,0,0,0-.439-.306,1.6,1.6,0,0,0-1.15,0,1.235,1.235,0,0,0-.44.306,1.35,1.35,0,0,0-.281.487,2.172,2.172,0,0,0,0,1.3,1.35,1.35,0,0,0,.281.485,1.22,1.22,0,0,0,.44.305,1.617,1.617,0,0,0,1.15,0,1.2,1.2,0,0,0,.439-.305,1.363,1.363,0,0,0,.28-.485,1.978,1.978,0,0,0,.1-.649m.546,0a2.248,2.248,0,0,1-.14.811,1.853,1.853,0,0,1-.395.635,1.792,1.792,0,0,1-.613.413,2.2,2.2,0,0,1-1.582,0,1.781,1.781,0,0,1-.612-.413,1.839,1.839,0,0,1-.4-.635,2.418,2.418,0,0,1,0-1.621,1.852,1.852,0,0,1,.4-.637,1.757,1.757,0,0,1,.612-.415,2.177,2.177,0,0,1,1.582,0,1.768,1.768,0,0,1,.613.415,1.867,1.867,0,0,1,.395.637,2.249,2.249,0,0,1,.14.81" transform="translate(-115.323 -187.21)" fill="#fff"/>
          </g>
          <g id="g92" transform="translate(66.512 17.755)">
            <path id="path94" d="M131.053,187.3v3.931h-.267a.219.219,0,0,1-.1-.022.306.306,0,0,1-.085-.073l-2.274-2.964c0,.046.006.091.008.135s0,.085,0,.123v2.8h-.467V187.3h.274a.427.427,0,0,1,.061,0,.2.2,0,0,1,.043.014.2.2,0,0,1,.038.028.405.405,0,0,1,.041.047l2.275,2.96c0-.048-.007-.093-.009-.139s-.005-.086-.005-.127V187.3Z" transform="translate(-127.867 -187.296)" fill="#fff"/>
          </g>
          <g id="g96" transform="translate(72.526 16.717)">
            <path id="path98" d="M140.1,185.639a.3.3,0,0,1-.027.126.324.324,0,0,1-.074.105.367.367,0,0,1-.108.073.307.307,0,0,1-.131.028.284.284,0,0,1-.126-.028.344.344,0,0,1-.106-.073.332.332,0,0,1-.071-.105.307.307,0,0,1-.027-.126.316.316,0,0,1,.027-.128.38.38,0,0,1,.071-.108.373.373,0,0,1,.106-.073.3.3,0,0,1,.126-.027.322.322,0,0,1,.131.027.4.4,0,0,1,.108.073.369.369,0,0,1,.074.108.308.308,0,0,1,.027.128m-.074,4.632h-.533v-3.932h.533Z" transform="translate(-139.43 -185.302)" fill="#fff"/>
          </g>
          <g id="g100" transform="translate(76.013 17.755)">
            <path id="path102" d="M150.226,187.3v3.931h-.467v-2.888c0-.038,0-.08.005-.124s.005-.089.009-.135l-1.35,2.459a.206.206,0,0,1-.192.123h-.077a.2.2,0,0,1-.191-.123l-1.378-2.47a2.31,2.31,0,0,1,.017.269v2.888h-.467V187.3h.393a.339.339,0,0,1,.11.014.153.153,0,0,1,.074.078l1.359,2.42c.021.044.044.089.065.136s.041.1.059.147c.017-.049.037-.1.058-.148a1.52,1.52,0,0,1,.066-.137l1.334-2.417a.144.144,0,0,1,.073-.078.342.342,0,0,1,.11-.014Z" transform="translate(-146.134 -187.296)" fill="#fff"/>
          </g>
          <g id="g104" transform="translate(84.081 17.71)">
            <path id="path106" d="M163.975,187.869a.2.2,0,0,1-.052.061.125.125,0,0,1-.07.021.2.2,0,0,1-.11-.047,1.726,1.726,0,0,0-.158-.1,1.337,1.337,0,0,0-.227-.1.98.98,0,0,0-.323-.047.955.955,0,0,0-.315.048.663.663,0,0,0-.226.131.5.5,0,0,0-.139.193.609.609,0,0,0-.048.24.447.447,0,0,0,.082.273.7.7,0,0,0,.215.185,1.61,1.61,0,0,0,.3.133l.345.118c.118.041.233.085.346.135a1.218,1.218,0,0,1,.3.192.869.869,0,0,1,.213.282.94.94,0,0,1,.081.412,1.305,1.305,0,0,1-.073.44,1.138,1.138,0,0,1-.21.37,1.15,1.15,0,0,1-.338.27,1.425,1.425,0,0,1-.46.142l-.05.178a.826.826,0,0,1,.368.148.306.306,0,0,1,.113.243.3.3,0,0,1-.044.16.387.387,0,0,1-.121.121.628.628,0,0,1-.189.074,1.035,1.035,0,0,1-.242.027.952.952,0,0,1-.215-.023,1.171,1.171,0,0,1-.186-.061l.047-.152a.063.063,0,0,1,.063-.049.079.079,0,0,1,.036.009.574.574,0,0,1,.055.023.6.6,0,0,0,.075.021.439.439,0,0,0,.1.01.272.272,0,0,0,.174-.047.141.141,0,0,0,.059-.117.151.151,0,0,0-.114-.149,1.682,1.682,0,0,0-.328-.069l.111-.332a1.705,1.705,0,0,1-.667-.147,1.629,1.629,0,0,1-.513-.365l.154-.253a.193.193,0,0,1,.054-.051.128.128,0,0,1,.07-.019.145.145,0,0,1,.081.028.914.914,0,0,1,.1.073c.039.029.082.062.131.1a1.239,1.239,0,0,0,.17.1,1.222,1.222,0,0,0,.486.1,1.017,1.017,0,0,0,.337-.052.751.751,0,0,0,.252-.147.633.633,0,0,0,.157-.226.76.76,0,0,0,.055-.293.486.486,0,0,0-.081-.292.654.654,0,0,0-.213-.191,1.571,1.571,0,0,0-.3-.131l-.346-.11a3.2,3.2,0,0,1-.344-.13,1.131,1.131,0,0,1-.3-.191.887.887,0,0,1-.212-.295,1.074,1.074,0,0,1,.236-1.188,1.169,1.169,0,0,1,.38-.241,1.407,1.407,0,0,1,.52-.091,1.669,1.669,0,0,1,.6.1,1.442,1.442,0,0,1,.475.3Z" transform="translate(-161.643 -187.21)" fill="#fff"/>
          </g>
          <g id="g108" transform="translate(89.204 16.717)">
            <path id="path110" d="M172.162,185.639a.293.293,0,0,1-.028.126.3.3,0,0,1-.074.105.364.364,0,0,1-.107.073.308.308,0,0,1-.131.028.282.282,0,0,1-.126-.028.336.336,0,0,1-.105-.073.3.3,0,0,1-.072-.105.3.3,0,0,1-.027-.126.308.308,0,0,1,.027-.128.343.343,0,0,1,.072-.108.363.363,0,0,1,.105-.073.3.3,0,0,1,.126-.027.323.323,0,0,1,.131.027.4.4,0,0,1,.107.073.341.341,0,0,1,.074.108.3.3,0,0,1,.028.128m-.074,4.632h-.532v-3.932h.532Z" transform="translate(-171.492 -185.302)" fill="#fff"/>
          </g>
          <g id="g112" transform="translate(92.691 17.754)">
            <path id="path114" d="M181.1,191.227h-.473a.239.239,0,0,1-.215-.112l-1.021-1.4a.3.3,0,0,0-.1-.1.373.373,0,0,0-.166-.028h-.4v1.641H178.2v-3.932h1.111a2.493,2.493,0,0,1,.646.074,1.266,1.266,0,0,1,.45.219.876.876,0,0,1,.261.345,1.142,1.142,0,0,1,.086.451,1.126,1.126,0,0,1-.066.39,1.1,1.1,0,0,1-.19.325,1.182,1.182,0,0,1-.306.246,1.6,1.6,0,0,1-.408.153.53.53,0,0,1,.176.167Zm-1.817-2.028a1.353,1.353,0,0,0,.409-.056.854.854,0,0,0,.3-.159.654.654,0,0,0,.179-.246.788.788,0,0,0,.062-.315.634.634,0,0,0-.231-.531,1.124,1.124,0,0,0-.693-.177h-.582V189.2Z" transform="translate(-178.197 -187.295)" fill="#fff"/>
          </g>
          <g id="g116" transform="translate(98.017 17.755)">
            <path id="path118" d="M188.964,189.018h.2a.456.456,0,0,0,.168-.026.28.28,0,0,0,.114-.089l1.309-1.482a.327.327,0,0,1,.115-.1.362.362,0,0,1,.148-.028h.45l-1.5,1.693a1.069,1.069,0,0,1-.106.109.647.647,0,0,1-.109.07.442.442,0,0,1,.135.072.7.7,0,0,1,.118.125l1.563,1.863h-.46a.528.528,0,0,1-.089-.007.272.272,0,0,1-.065-.022.39.39,0,0,1-.047-.036.368.368,0,0,1-.041-.047l-1.355-1.563a.356.356,0,0,0-.118-.1.5.5,0,0,0-.192-.028h-.243v1.8h-.528V187.3h.528Z" transform="translate(-188.436 -187.296)" fill="#fff"/>
          </g>
          <g id="g120" transform="translate(103.541 17.754)">
            <path id="path122" d="M201.479,190.794l0,.433h-2.422v-3.932h2.422v.434h-1.89v1.306h1.531v.418h-1.531v1.342Z" transform="translate(-199.055 -187.295)" fill="#fff"/>
          </g>
          <g id="g124" transform="translate(108.178 17.755)">
            <path id="path126" d="M211.048,187.743h-1.272v3.485h-.529v-3.485H207.97V187.3h3.078Z" transform="translate(-207.97 -187.296)" fill="#fff"/>
          </g>
          <g id="g128" transform="translate(113.663 16.717)">
            <path id="path130" d="M219.183,185.639a.285.285,0,0,1-.028.126.309.309,0,0,1-.072.105.386.386,0,0,1-.11.073.306.306,0,0,1-.256,0,.36.36,0,0,1-.106-.073.34.34,0,0,1-.1-.231.316.316,0,0,1,.027-.128.347.347,0,0,1,.07-.108.391.391,0,0,1,.106-.073.316.316,0,0,1,.256,0,.421.421,0,0,1,.11.073.351.351,0,0,1,.072.108.293.293,0,0,1,.028.128m-.073,4.632h-.533v-3.932h.533Z" transform="translate(-218.514 -185.302)" fill="#fff"/>
          </g>
          <path id="path132" d="M72.848,178.953h-.869v-25.79h.869Z" transform="translate(-34.538 -153.163)" fill="#fff"/>
        </g>
      </g>
    </g>
  </g>
</svg>
