<svg xmlns="http://www.w3.org/2000/svg" width="149.607" height="25.542" viewBox="0 0 149.607 25.542">
  <g id="g10" transform="translate(0 -82.804)" opacity="0.6">
    <g id="g12" transform="translate(0 82.804)">
      <g id="Group_3489" data-name="Group 3489">
        <g id="g14">
          <g id="g20" transform="translate(30.549 0.365)">
            <path id="path22" d="M100.648,107.792v-1.712L91.462,95.771,100.454,83.2H95.878l-6.8,9.369V83.2H84.815v24.589h4.259v-8.7l7.664,8.7ZM78.622,90.976c0,2.575-1.45,4.834-4.224,4.834a6.959,6.959,0,0,1-2.231-.508V86.877h1.407c3.559,0,5.047,1.557,5.047,4.1m5.392,16.816v-1.712l-7-7.258c3.6-.313,5.942-4.1,5.942-7.806,0-4.373-2.58-7.812-9.384-7.812H67.906v24.589h4.262V99.011l8.015,8.781ZM65,98.151V83.2H60.737V98.151c0,2.612-.353,6.475-3.792,6.475s-3.792-3.864-3.792-6.475V83.2H48.892V98.151c0,5.271,2.111,10.23,8.053,10.23S65,103.422,65,98.151M48.482,87.112V83.2H33.431v3.909h5.4v20.679h4.222V87.112Z" transform="translate(-33.431 -83.203)" fill="#fff"/>
          </g>
          <g id="g24" transform="translate(0 0.029)">
            <path id="path26" d="M4.363,107.762A15.341,15.341,0,0,1,0,102.917v1.73a3.123,3.123,0,0,0,3.116,3.115Zm22.94-5.7a15.681,15.681,0,0,1-4.868,5.7h1.751a3.124,3.124,0,0,0,3.117-3.115ZM9.444,82.836H24.187c.1,0,.194,0,.289.012l0,.127-4.35,1.485,4.392,1.353.069,4.6,2.645-3.759.069.02V96.758a13,13,0,0,1-11.232,7.472A11.143,11.143,0,0,1,4.412,92.571a12.906,12.906,0,0,1,5.032-9.735m-6.328,0H4.16a15.838,15.838,0,0,0-1.622,1.412A15.532,15.532,0,0,0,0,87.58V85.95a3.124,3.124,0,0,1,3.116-3.114" transform="translate(0 -82.836)" fill="#fff"/>
          </g>
          <g id="g28" transform="translate(0 0.029)">
            <path id="path30" d="M4.363,107.762A15.341,15.341,0,0,1,0,102.917v1.73a3.123,3.123,0,0,0,3.116,3.115Zm22.94-5.7a15.681,15.681,0,0,1-4.868,5.7h1.751a3.124,3.124,0,0,0,3.117-3.115ZM9.444,82.836H24.187c.1,0,.194,0,.289.012l0,.127-4.35,1.485,4.392,1.353.069,4.6,2.645-3.759.069.02V96.758a13,13,0,0,1-11.232,7.472A11.143,11.143,0,0,1,4.412,92.571,12.906,12.906,0,0,1,9.444,82.836Zm-6.328,0H4.16a15.838,15.838,0,0,0-1.622,1.412A15.532,15.532,0,0,0,0,87.58V85.95A3.124,3.124,0,0,1,3.116,82.836Z" transform="translate(0 -82.836)" fill="#fff"/>
          </g>
          <g id="Group_3488" data-name="Group 3488" transform="translate(100.868)">
            <path id="Path_20814" data-name="Path 20814" d="M142.22,96.61h-1.594v3.209h1.553a2.138,2.138,0,0,0,1.412-.4,1.443,1.443,0,0,0,.468-1.154,1.6,1.6,0,0,0-.466-1.205A1.9,1.9,0,0,0,142.22,96.61Z" transform="translate(-112.989 -83.994)" fill="#fff"/>
            <path id="Path_20815" data-name="Path 20815" d="M154.962,97.537l-1.261,3.95h2.571l-1.265-3.95Z" transform="translate(-114.116 -84.074)" fill="#fff"/>
            <path id="Path_20816" data-name="Path 20816" d="M140.427,89.676a.675.675,0,0,0,.219-.545.755.755,0,0,0-.218-.566.9.9,0,0,0-.648-.211h-.749v1.511h.73A1,1,0,0,0,140.427,89.676Z" transform="translate(-112.851 -83.282)" fill="#fff"/>
            <path id="Path_20817" data-name="Path 20817" d="M129.39,97.537l-1.26,3.95H130.7l-1.265-3.95Z" transform="translate(-111.912 -84.074)" fill="#fff"/>
            <path id="Path_20818" data-name="Path 20818" d="M119.635,96.61h-1.893v3.679h1.893a1.863,1.863,0,0,0,1.423-.512,1.834,1.834,0,0,0,.479-1.3,1.915,1.915,0,0,0-.479-1.338A1.833,1.833,0,0,0,119.635,96.61Z" transform="translate(-111.016 -83.994)" fill="#fff"/>
            <path id="Path_20819" data-name="Path 20819" d="M144.891,92.063a1.128,1.128,0,0,0,1.006-.508,2.4,2.4,0,0,0,.338-1.345v-.087a2.371,2.371,0,0,0-.34-1.33,1.141,1.141,0,0,0-1.008-.511,1.109,1.109,0,0,0-1,.507,2.421,2.421,0,0,0-.327,1.334v.087a2.436,2.436,0,0,0,.331,1.345A1.11,1.11,0,0,0,144.891,92.063Z" transform="translate(-113.242 -83.276)" fill="#fff"/>
            <path id="Path_20820" data-name="Path 20820" d="M156.277,88.269l-.543-.106-.547.106v3.788l.547.1.543-.1Z" transform="translate(-114.244 -83.266)" fill="#fff"/>
            <path id="Path_20821" data-name="Path 20821" d="M155.643,82.8H113.859a3.465,3.465,0,0,0-3.477,3.431v18.089a3.463,3.463,0,0,0,3.477,3.431h41.784a3.464,3.464,0,0,0,3.479-3.431V86.235A3.465,3.465,0,0,0,155.643,82.8Zm-5.508,2.86h1.1v.873h-1.1Zm-10.493,4a2.831,2.831,0,0,1,.658-1.914,2.168,2.168,0,0,1,1.727-.76,2.2,2.2,0,0,1,1.738.76,2.812,2.812,0,0,1,.663,1.914v.079a2.8,2.8,0,0,1-.663,1.918,2.359,2.359,0,0,1-3.464,0,2.824,2.824,0,0,1-.66-1.918ZM117.309,91.7l.564-.108V87.807l-.564-.11V87.06H119.5V87.7l-.567.11v3.72h1.492l.048-.663h.809v.828l.5-.1V87.807l-.563-.11V87.06h4.171v1.447h-.812l-.047-.63h-1.69V89.2h1.786v.817h-1.786v1.509h1.7l.046-.631h.807v1.442h-4.119v-.646l-.06.011v.635h-3.91Zm-4.3,0,.562-.108V87.807l-.562-.11V87.06h4.168v1.447h-.811l-.047-.63h-1.691V89.2h1.787v.817h-1.787v1.509h1.7l.048-.631h.8v1.442h-4.175ZM119,100.831h-1.893v2.487l1.2.229V104.9h-4.643v-1.349l1.2-.229V95.274l-1.2-.232V93.686H119a4.412,4.412,0,0,1,3.038.991,3.572,3.572,0,0,1,0,5.177A4.443,4.443,0,0,1,119,100.831Zm14.234,4.066h-3.817v-1.349l.775-.136-.491-1.541h-3.633l-.5,1.541.779.136V104.9h-3.819v-1.349l.8-.114,3.41-9.748h2.3l3.386,9.748.8.114Zm.945-17.02h-.972v3.718l.566.108v.635h-2.188V91.7l.562-.108V87.877h-.964l-.042.589h-.811v-.757l-.5.086-1.3,1.734,1.459,2.083.526.09v.635h-2.093V91.7l.329-.043-1.017-1.525h-.589v1.46l.535.108v.635h-2.155V91.7l.561-.108V87.807l-.561-.11V87.06h2.155V87.7l-.535.11v1.411h.46l1.014-1.477L128.3,87.7V87.06h2.026v.65l.069-.012V87.06h4.542V87.7l.1.018V87.06h2.274a2.195,2.195,0,0,1,1.411.411,1.382,1.382,0,0,1,.511,1.136,1.143,1.143,0,0,1-.214.693,1.473,1.473,0,0,1-.629.475,1.136,1.136,0,0,1,.674.46,1.448,1.448,0,0,1,.2.8V91.3a.447.447,0,0,0,.069.27.3.3,0,0,0,.226.114l.132.018v.638h-.547a.853.853,0,0,1-.727-.279,1.15,1.15,0,0,1-.21-.722v-.3a.846.846,0,0,0-.207-.6.783.783,0,0,0-.578-.229h-.864v1.392l.566.108v.635h-2.187V91.7l.562-.108V87.807l-.466-.091v.75h-.811Zm10.5,17.02h-1.162a1.808,1.808,0,0,1-1.546-.594,2.458,2.458,0,0,1-.446-1.533v-.636a1.811,1.811,0,0,0-.436-1.284,1.677,1.677,0,0,0-1.229-.489h-1.838v2.958l1.2.229V104.9h-4.642v-1.349l1.193-.229V95.274l-1.193-.232V93.686h5.036a4.66,4.66,0,0,1,3,.875,2.942,2.942,0,0,1,1.085,2.412,2.417,2.417,0,0,1-.458,1.471,3.185,3.185,0,0,1-1.33,1.01,2.412,2.412,0,0,1,1.427.973,3.082,3.082,0,0,1,.433,1.691v.567a.961.961,0,0,0,.149.573.651.651,0,0,0,.482.245l.279.036Zm11.925,0h-3.817v-1.349l.777-.136-.492-1.541h-3.634l-.493,1.541.778.136V104.9H145.9v-1.349l.8-.114,3.411-9.748h2.3l3.387,9.748.8.114Zm.243-12.558h-2.093V91.7l.328-.043-1.015-1.525h-.59v1.46l.535.108v.635h-2.118V91.7l-.019,0-.018,0v.635h-2.147V91.7l.564-.108V87.807l-.514-.1-.515.1v4.531h-1.055l-2.131-3.553-.021,0v2.805l.566.108v.635h-2.188V91.7l.561-.108V87.807l-.561-.11V87.06h1.622l2.131,3.553.021,0v-2.8l-.565-.11V87.06h2.084V87.7l.05.01.051-.01V87.06h2.046V87.7l.018,0,.019,0V87.06h2.118V87.7l-.535.11v1.411h.461l1.012-1.477-.309-.044V87.06h2.089V87.7l-.572.1-1.3,1.734,1.458,2.083.526.09Z" transform="translate(-110.382 -82.804)" fill="#fff"/>
          </g>
        </g>
      </g>
    </g>
  </g>
</svg>
