<?xml version="1.0" encoding="utf-8"?>
<!-- Generator: Adobe Illustrator 26.1.0, SVG Export Plug-In . SVG Version: 6.00 Build 0)  -->
<svg version="1.1" id="Layer_1" xmlns="http://www.w3.org/2000/svg" xmlns:xlink="http://www.w3.org/1999/xlink" x="0px" y="0px"
	 viewBox="0 0 792.1 187" style="enable-background:new 0 0 792.1 187;" xml:space="preserve">
<style type="text/css">
	.st0{fill:#040245;}
	.st1{fill:#00C1FF;}
	.st2{fill:#00E3FF;}
	.st3{fill:#FF9C00;}
	.st4{fill:#FA3746;}
	.st5{fill:#33A072;}
	.st6{fill:url(#SVGID_1_);}
	.st7{fill:url(#SVGID_00000160156033704072049050000013599533637381133466_);}
	.st8{fill:url(#SVGID_00000183950116274743034950000001641147177786981535_);}
	.st9{fill:url(#SVGID_00000019663906022932163780000007787852653908740025_);}
	.st10{fill:url(#SVGID_00000097484033718615788810000005805286531208444552_);}
	.st11{fill:url(#SVGID_00000147181902857392723160000002793885461488410046_);}
</style>
<g>
	<path class="st0" d="M256,23.8c0,5.7-1.7,10.3-5.1,13.7c-3.9,4.1-8.9,6.1-15.1,6.1c-5.9,0-11-2.1-15.1-6.2
		c-4.1-4.1-6.2-9.2-6.2-15.3c0-6.1,2.1-11.2,6.2-15.3c4.1-4.1,9.2-6.2,15.1-6.2c2.9,0,5.8,0.6,8.4,1.7c2.7,1.2,4.8,2.7,6.4,4.6
		l-3.6,3.6c-2.7-3.3-6.5-4.9-11.2-4.9c-4.3,0-8.1,1.5-11.2,4.6c-3.2,3-4.7,7-4.7,11.9c0,4.9,1.6,8.8,4.7,11.9
		c3.2,3,6.9,4.6,11.2,4.6c4.6,0,8.4-1.5,11.5-4.6c2-2,3.1-4.8,3.4-8.3h-14.9v-4.9h19.9C255.9,21.8,256,22.8,256,23.8"/>
	<path class="st0" d="M256,23.8h-0.7c0,5.6-1.6,10-4.9,13.2l0,0l0,0c-3.7,3.9-8.5,5.9-14.6,5.9c-5.8,0-10.6-2-14.6-6
		c-4-4-6-8.9-6-14.8c0-5.9,2-10.8,6-14.8c4-4,8.9-6,14.6-6c2.9,0,5.6,0.6,8.2,1.7c2.6,1.1,4.6,2.6,6.2,4.4l0.5-0.4l-0.5-0.5
		l-3.6,3.6l0.5,0.5l0.5-0.4c-2.8-3.4-6.8-5.1-11.8-5.1c-4.5,0-8.4,1.6-11.7,4.8c-3.3,3.2-4.9,7.3-4.9,12.3c0,5,1.6,9.2,4.9,12.3
		c3.3,3.2,7.2,4.8,11.7,4.8c4.7,0,8.8-1.6,11.9-4.8c2.1-2.1,3.3-5.1,3.6-8.7l0.1-0.7h-15v-3.6h19.2v-0.7l-0.7,0.1c0.2,1,0.3,2,0.3,3
		h1.4c0-1-0.1-2.1-0.3-3.2l-0.1-0.6h-21.1v6.3h15.6v-0.7l-0.7-0.1c-0.3,3.4-1.4,6-3.2,7.9c-2.9,2.9-6.5,4.4-11,4.4
		c-4.2,0-7.7-1.4-10.7-4.4c-3-2.9-4.5-6.6-4.5-11.4c0-4.7,1.5-8.4,4.5-11.4c3-2.9,6.6-4.4,10.7-4.4c4.6,0,8.1,1.5,10.7,4.6l0.5,0.6
		l4.1-4.1l0.4-0.4l-0.4-0.5c-1.7-2-3.9-3.6-6.7-4.8c-2.8-1.2-5.7-1.8-8.7-1.8c-6.1,0-11.3,2.1-15.6,6.4c-4.3,4.2-6.4,9.5-6.4,15.8
		c0,6.2,2.1,11.6,6.4,15.8c4.3,4.2,9.5,6.4,15.6,6.4c6.3,0,11.6-2.1,15.6-6.3l-0.5-0.5l0.5,0.5c3.5-3.5,5.3-8.3,5.3-14.2L256,23.8
		 M287.6,6.7h-18.7v13h16.8v4.9h-16.8v13h18.7v5h-24V1.6h24V6.7"/>
	<path class="st0" d="M287.6,6.7V6h-19.4v14.4H285v3.6l-16.8,0v14.4h18.7V42h-22.6V2.3h22.6v4.4L287.6,6.7V6V6.7l0.7,0V0.9h-25.3
		v42.5h25.3V37h-18.7V25.3h16.8V19h-16.8V7.3h18.7V6.7L287.6,6.7 M309.8,42.7h-5.3v-36h-11.5v-5h28.2v5h-11.5V42.7"/>
	<path class="st0" d="M309.8,42.7V42h-4.6V6h-11.5V2.3h26.8V6h-11.5v36.7L309.8,42.7l0-0.7L309.8,42.7l0.7,0V7.3h11.5V0.9h-29.6v6.4
		h11.5v36h6.6v-0.7L309.8,42.7 M341.6,42.7V1.6h5.3v41.1L341.6,42.7"/>
	<path class="st0" d="M341.6,42.7h0.7V2.3h3.9V42h-4.6V42.7l0.7,0L341.6,42.7v0.7h6V0.9H341v42.5h0.7V42.7 M370.3,42.7H365v-36
		h-11.5v-5h28.2v5h-11.5V42.7"/>
	<path class="st0" d="M370.3,42.7V42h-4.6V6h-11.5V2.3h26.8V6h-11.5v36.7L370.3,42.7l0-0.7L370.3,42.7l0.7,0V7.3h11.5V0.9h-29.6v6.4
		h11.5v36h6.6v-0.7L370.3,42.7 M408.9,33.9c3,3.1,6.8,4.6,11.1,4.6c4.4,0,8.1-1.5,11.1-4.6c3-3.1,4.6-7,4.6-11.8
		c0-4.8-1.5-8.7-4.6-11.8c-3-3.1-6.7-4.6-11.1-4.6c-4.4,0-8.1,1.5-11.1,4.6c-3,3.1-4.6,7-4.6,11.8S405.9,30.9,408.9,33.9z
		 M435.1,37.4c-4,4.2-9,6.2-15,6.2c-6,0-11-2.1-15-6.2c-4-4.1-6-9.2-6-15.2s2-11.1,6-15.2c4-4.2,9-6.2,15-6.2c6,0,11,2.1,15,6.3
		c4,4.2,6.1,9.2,6.1,15.2C441.2,28.2,439.1,33.2,435.1,37.4z"/>
	<path class="st0" d="M408.9,33.9l-0.5,0.5c3.1,3.2,7.1,4.8,11.6,4.8c4.6,0,8.5-1.6,11.6-4.8c3.2-3.2,4.8-7.4,4.8-12.3
		c0-4.9-1.6-9.1-4.8-12.3c-3.1-3.2-7.1-4.8-11.6-4.8c-4.6,0-8.5,1.6-11.6,4.8c-3.2,3.2-4.8,7.4-4.8,12.3c0,4.9,1.6,9.1,4.8,12.3
		L408.9,33.9l0.5-0.5c-2.9-3-4.4-6.7-4.4-11.3c0-4.6,1.5-8.4,4.4-11.3c2.9-3,6.4-4.4,10.7-4.4c4.2,0,7.7,1.5,10.7,4.4
		c2.9,3,4.4,6.7,4.4,11.3c0,4.6-1.5,8.4-4.4,11.3c-2.9,3-6.4,4.4-10.7,4.4c-4.2,0-7.7-1.5-10.7-4.4L408.9,33.9z M435.1,37.4
		l-0.5-0.5c-3.9,4-8.7,6-14.6,6c-5.8,0-10.6-2-14.5-6l0,0l0,0c-3.9-4-5.8-8.9-5.8-14.8c0-5.9,1.9-10.7,5.8-14.8c3.9-4,8.7-6,14.5-6
		c5.8,0,10.6,2,14.5,6.1c3.9,4.1,5.9,8.9,5.9,14.7c0,5.9-1.9,10.7-5.8,14.8L435.1,37.4l0.5,0.5c4.1-4.3,6.2-9.6,6.2-15.7
		c0-6.1-2.1-11.4-6.3-15.7c-4.2-4.3-9.4-6.5-15.5-6.5c-6.2,0-11.4,2.2-15.5,6.4v0c-4.2,4.3-6.2,9.6-6.2,15.7
		c0,6.2,2.1,11.4,6.2,15.7l0,0l0,0c4.1,4.3,9.4,6.4,15.5,6.4c6.2,0,11.4-2.2,15.5-6.4L435.1,37.4z M448.6,42.7V1.6h6.4l19.9,32h0.2
		l-0.2-7.9v-24h5.3v41.1h-5.5L453.8,9.2h-0.2l0.2,7.9v25.6L448.6,42.7"/>
	<path class="st0" d="M448.6,42.7h0.7V2.3h5.4l19.9,32h1.3l-0.2-8.6V2.3h3.9V42h-4.4L454.2,8.5h-1.3l0.2,8.6V42h-4.6L448.6,42.7
		l0.7,0L448.6,42.7l0,0.7h6V17.1l-0.2-7.9l-0.7,0v0.7h0.2V9.2l-0.6,0.4l21.1,33.8h6.6V0.9h-6.6v24.7l0.2,7.9l0.7,0v-0.7h-0.2v0.7
		l0.6-0.4L455.4,0.9h-7.5v42.5h0.7L448.6,42.7 M663,159.1h12.8V73.5H663L663,159.1z M777.9,104.3l-14.6,37.1h-0.4l-15.2-37.1h-13.7
		l22.8,51.9l-13,28.9H757l35.1-80.7L777.9,104.3z M705.6,149.4c-4.2,0-10-2.1-10-7.3c0-6.6,7.3-9.1,13.5-9.1c5.6,0,8.2,1.2,11.7,2.9
		C719.7,143.8,712.9,149.4,705.6,149.4L705.6,149.4z M707.1,102.5c-9.2,0-18.8,4.1-22.8,13.1l11.3,4.7c2.4-4.7,6.9-6.3,11.7-6.3
		c6.6,0,13.3,4,13.4,11v0.9c-2.3-1.3-7.3-3.3-13.3-3.3c-12.2,0-24.6,6.7-24.6,19.3c0,11.5,10,18.8,21.2,18.8
		c8.6,0,13.3-3.9,16.3-8.4h0.4v6.6H733v-32.8C733,111,721.7,102.5,707.1,102.5L707.1,102.5z M628.2,114.8h-18.1V85.4h18.1
		c9.5,0,15,7.9,15,14.7C643.2,106.7,637.8,114.8,628.2,114.8z M627.9,73.5h-30.6v85.6h12.8v-32.4h17.8c14.1,0,28-10.3,28-26.6
		C656,83.8,642.1,73.5,627.9,73.5L627.9,73.5z M461.2,149.4c-8.8,0-16.2-7.4-16.2-17.5c0-10.3,7.4-17.8,16.2-17.8
		c8.7,0,15.5,7.5,15.5,17.8C476.7,142,469.9,149.4,461.2,149.4L461.2,149.4z M475.9,109.1h-0.4c-2.9-3.4-8.4-6.5-15.3-6.5
		c-14.5,0-27.9,12.8-27.9,29.2c0,16.3,13.3,29,27.9,29c6.9,0,12.4-3.1,15.3-6.6h0.4v4.2c0,11.1-5.9,17.1-15.5,17.1
		c-7.8,0-12.7-5.6-14.7-10.4l-11.1,4.6c3.2,7.7,11.7,17.2,25.8,17.2c15,0,27.6-8.8,27.6-30.3v-52.3h-12.1L475.9,109.1z M496.8,159.1
		h12.8V73.5h-12.8V159.1z M528.4,130.9c-0.3-11.3,8.7-17,15.2-17c5.1,0,9.4,2.5,10.8,6.2L528.4,130.9z M568.1,121.2
		c-2.4-6.5-9.8-18.5-24.9-18.5c-15,0-27.4,11.8-27.4,29.1c0,16.3,12.3,29.1,28.9,29.1c13.3,0,21-8.2,24.2-12.9l-9.9-6.6
		c-3.3,4.9-7.8,8.1-14.3,8.1c-6.5,0-11.1-3-14.1-8.8l38.9-16.1L568.1,121.2z M258.3,111.6v12.4h29.5c-0.9,7-3.2,12-6.7,15.6
		c-4.3,4.3-11,9-22.8,9c-18.2,0-32.4-14.7-32.4-32.9c0-18.2,14.2-32.9,32.4-32.9c9.8,0,17,3.9,22.3,8.8l8.7-8.7
		c-7.4-7.1-17.2-12.5-31-12.5c-24.9,0-45.8,20.3-45.8,45.2c0,24.9,20.9,45.2,45.8,45.2c13.4,0,23.6-4.4,31.5-12.7
		c8.2-8.2,10.7-19.6,10.7-28.9c0-2.9-0.2-5.5-0.7-7.7L258.3,111.6z M334,149.4c-8.8,0-16.4-7.3-16.4-17.7c0-10.5,7.6-17.7,16.4-17.7
		c8.8,0,16.4,7.2,16.4,17.7C350.4,142.1,342.8,149.4,334,149.4z M334,102.6c-16.1,0-29.2,12.2-29.2,29.1c0,16.8,13.1,29.1,29.2,29.1
		c16.1,0,29.2-12.4,29.2-29.1C363.2,114.9,350.1,102.6,334,102.6z M397.7,149.4c-8.8,0-16.4-7.3-16.4-17.7
		c0-10.5,7.6-17.7,16.4-17.7c8.8,0,16.4,7.2,16.4,17.7C414.1,142.1,406.5,149.4,397.7,149.4L397.7,149.4z M397.7,102.6
		c-16.1,0-29.2,12.2-29.2,29.1c0,16.8,13.1,29.1,29.2,29.1c16.1,0,29.2-12.4,29.2-29.1C426.9,114.9,413.8,102.6,397.7,102.6
		L397.7,102.6z"/>
	<path class="st1" d="M3.7,5.8C1.4,7.9,0,11.3,0,15.9v-1v151.5v-1c0,4.2,1.2,7.5,3.2,9.6l0.5,0.5v0c1.6,1.5,3.7,2.2,6,2.2
		c2.3,0,4.9-0.7,7.7-2.3l99.2-56.5l34.1-19.4c4.3-2.5,6.8-5.6,7.2-8.9v0c-0.4-3.2-2.8-6.4-7.2-8.9l-34.1-19.4L17.4,5.9
		C14.6,4.3,12,3.6,9.7,3.6C7.3,3.6,5.3,4.3,3.7,5.8L3.7,5.8z"/>
	<path class="st2" d="M3.7,175.5L3.2,175c-2-2.1-3.2-5.4-3.2-9.6v1V14.9v1c0-4.6,1.4-8,3.7-10.1l84.7,84.9L3.7,175.5"/>
	<path class="st3" d="M116.6,118.9L88.4,90.6l28.2-28.3l34.1,19.4c4.3,2.5,6.8,5.6,7.2,8.9v0c-0.4,3.2-2.8,6.4-7.2,8.9L116.6,118.9"
		/>
	<path class="st4" d="M9.7,177.7c-2.4,0-4.4-0.8-6-2.2v0l84.7-84.8l28.2,28.3l-99.2,56.5C14.6,177,12,177.7,9.7,177.7"/>
	<path class="st5" d="M88.4,90.6L3.7,5.8c1.6-1.5,3.7-2.2,6-2.2c2.3,0,4.9,0.7,7.7,2.3l99.2,56.5L88.4,90.6"/>
	
		<linearGradient id="SVGID_1_" gradientUnits="userSpaceOnUse" x1="55.7166" y1="-5.0401" x2="55.7166" y2="-5.0401" gradientTransform="matrix(0.3506 0 0 0.2702 -16.6105 180.3479)">
		<stop  offset="0" style="stop-color:#32A071"/>
		<stop  offset="6.850000e-02" style="stop-color:#2DA771"/>
		<stop  offset="0.4762" style="stop-color:#15CF74"/>
		<stop  offset="0.8009" style="stop-color:#06E775"/>
		<stop  offset="1" style="stop-color:#00F076"/>
	</linearGradient>
	<path class="st6" d="M2.9,179"/>
	
		<linearGradient id="SVGID_00000118399616121606616730000008036814759813666714_" gradientUnits="userSpaceOnUse" x1="-101.5021" y1="-398.3455" x2="-177.3061" y2="-178.7615" gradientTransform="matrix(0.181 0 0 0.5234 37.9716 230.1243)">
		<stop  offset="0" style="stop-color:#008DE0"/>
		<stop  offset="6.569999e-03" style="stop-color:#008DE0"/>
		<stop  offset="0.2601" style="stop-color:#00A7E0"/>
		<stop  offset="0.5122" style="stop-color:#00B8E0"/>
		<stop  offset="0.7604" style="stop-color:#00C4E0"/>
		<stop  offset="1" style="stop-color:#00C7E0"/>
	</linearGradient>
	<path style="fill:url(#SVGID_00000118399616121606616730000008036814759813666714_);" d="M3.2,176c-2-2.1-3.2-5.4-3.2-9.6v-1
		c0,4.2,1.2,7.5,3.2,9.6l0.5,0.5L3.2,176"/>
	
		<linearGradient id="SVGID_00000119101932952025079900000000808913534564716471_" gradientUnits="userSpaceOnUse" x1="198.0436" y1="-410.4183" x2="-251.9924" y2="-410.4183" gradientTransform="matrix(0.3676 0 0 0.2577 90.349 210.8768)">
		<stop  offset="0" style="stop-color:#E0C500"/>
		<stop  offset="0.4087" style="stop-color:#E0A600"/>
		<stop  offset="0.7754" style="stop-color:#E09100"/>
		<stop  offset="1" style="stop-color:#E08900"/>
	</linearGradient>
	<path style="fill:url(#SVGID_00000119101932952025079900000000808913534564716471_);" d="M117.3,119.6l-0.6-0.6l34.1-19.4
		c4.3-2.5,6.8-5.6,7.2-8.9c0,1.2-0.3,2.4-0.8,3.5c-1.1,2.3-3.2,4.5-6.4,6.3L117.3,119.6"/>
	
		<linearGradient id="SVGID_00000103246436971667655500000014250977090395576501_" gradientUnits="userSpaceOnUse" x1="198.0411" y1="-411.0716" x2="-252.0009" y2="-411.0716" gradientTransform="matrix(0.3676 0 0 0.2577 90.3511 182.1123)">
		<stop  offset="0" style="stop-color:#FFE840"/>
		<stop  offset="0.4087" style="stop-color:#FFCE40"/>
		<stop  offset="0.7754" style="stop-color:#FFBC40"/>
		<stop  offset="1" style="stop-color:#FFB540"/>
	</linearGradient>
	<path style="fill:url(#SVGID_00000103246436971667655500000014250977090395576501_);" d="M157.9,90.6c-0.4-3.2-2.8-6.4-7.2-8.9
		l-34.1-19.4l0.6-0.6h0l33.5,19C155.5,83.5,157.9,87.1,157.9,90.6"/>
	
		<linearGradient id="SVGID_00000044892165192585685200000005636792690897587123_" gradientUnits="userSpaceOnUse" x1="-196.7457" y1="-124.8339" x2="-272.1247" y2="84.6331" gradientTransform="matrix(0.1807 0 0 0.5242 38.0572 69.7641)">
		<stop  offset="0" style="stop-color:#40B8FF"/>
		<stop  offset="6.569999e-03" style="stop-color:#40B9FF"/>
		<stop  offset="0.2601" style="stop-color:#40CEFF"/>
		<stop  offset="0.5122" style="stop-color:#40DDFF"/>
		<stop  offset="0.7604" style="stop-color:#40E7FF"/>
		<stop  offset="1" style="stop-color:#40EAFF"/>
	</linearGradient>
	<path style="fill:url(#SVGID_00000044892165192585685200000005636792690897587123_);" d="M0,15.9v-1c0-0.4,0-0.7,0-1.1v0
		c0,0,0,0,0,0v0C0.2,10,1.4,7.2,3.2,5.3l0.5,0.5C1.4,7.9,0,11.3,0,15.9"/>
	
		<linearGradient id="SVGID_00000121965338732834598410000015661638290003249297_" gradientUnits="userSpaceOnUse" x1="-194.3929" y1="-13.7469" x2="-194.3929" y2="-13.7469" gradientTransform="matrix(0.1807 0 0 0.5242 38.0572 69.7641)">
		<stop  offset="0" style="stop-color:#40B8FF"/>
		<stop  offset="6.569999e-03" style="stop-color:#40B9FF"/>
		<stop  offset="0.2601" style="stop-color:#40CEFF"/>
		<stop  offset="0.5122" style="stop-color:#40DDFF"/>
		<stop  offset="0.7604" style="stop-color:#40E7FF"/>
		<stop  offset="1" style="stop-color:#40EAFF"/>
	</linearGradient>
	<path style="fill:url(#SVGID_00000121965338732834598410000015661638290003249297_);" d="M2.9,62.6"/>
</g>
</svg>
