<svg xmlns="http://www.w3.org/2000/svg" width="122.908" height="27.205" viewBox="0 0 122.908 27.205">
  <g id="Group_3568" data-name="Group 3568" transform="translate(0.5 0.162)">
    <path id="Path_1436" data-name="Path 1436" d="M-1190.964,435.157a2.116,2.116,0,0,0,1.549.642,2.062,2.062,0,0,0,1.549-.642,2.224,2.224,0,0,0,.632-1.635,2.228,2.228,0,0,0-.63-1.635,2.119,2.119,0,0,0-1.549-.642,2.052,2.052,0,0,0-1.546.642,2.223,2.223,0,0,0-.632,1.635A2.226,2.226,0,0,0-1190.964,435.157Zm-17.558,1.425h-3.666v-6.131h3.666v.924h-2.707v1.685h2.443v.914h-2.443v1.685h2.707Zm3.224.01h-.956v-5.217h-1.662v-.924h4.281v.924h-1.662Zm5.373,0h-.956v-6.141h.956Zm3.4,0h-.958v-5.217h-1.662v-.924h4.281v.924h-1.662v5.217Zm15.9,0h-.946l-2.9-4.636.025.835v3.8h-.946v-6.138h1.079l.03.047,2.725,4.367-.025-.832v-3.582h.956Zm-35.474.131a3.125,3.125,0,0,1-2.26-.919,3.087,3.087,0,0,1-.932-2.282,3.087,3.087,0,0,1,.932-2.282,3.085,3.085,0,0,1,2.26-.919,3.149,3.149,0,0,1,1.262.262,2.549,2.549,0,0,1,.961.687l.059.072-.669.657-.069-.081a1.9,1.9,0,0,0-1.554-.669,2.148,2.148,0,0,0-1.549.632,2.209,2.209,0,0,0-.652,1.645,2.209,2.209,0,0,0,.652,1.645,2.148,2.148,0,0,0,1.549.632,2.16,2.16,0,0,0,1.591-.632,1.711,1.711,0,0,0,.454-1.03h-2.147v-.924h3.068l.012.084a3.43,3.43,0,0,1,.044.464,2.782,2.782,0,0,1-.766,2.05A2.989,2.989,0,0,1-1216.1,436.723Zm26.68,0a3.014,3.014,0,0,1-2.25-.931,3.171,3.171,0,0,1-.909-2.272,3.1,3.1,0,0,1,.909-2.27,3.005,3.005,0,0,1,2.248-.931,3.046,3.046,0,0,1,2.25.931,3.165,3.165,0,0,1,.909,2.27,3.173,3.173,0,0,1-.909,2.27A2.989,2.989,0,0,1-1189.415,436.723Z" transform="translate(1257.939 -430.318)" fill="#fff"/>
    <path id="Path_1437" data-name="Path 1437" d="M-1156.391,570.4h1.85v-12.38h-1.85Zm16.654-7.924-2.125,5.37h-.067l-2.2-5.37h-1.991l3.3,7.507-1.882,4.172h1.927l5.081-11.679ZM-1150.228,569c-.605,0-1.453-.3-1.453-1.057,0-.959,1.057-1.322,1.959-1.322a3.212,3.212,0,0,1,1.685.417A2.227,2.227,0,0,1-1150.228,569Zm.232-6.781a3.484,3.484,0,0,0-3.3,1.892l1.64.682a1.759,1.759,0,0,1,1.685-.914,1.787,1.787,0,0,1,1.949,1.6v.131a4.142,4.142,0,0,0-1.927-.474c-1.771,0-3.567.968-3.567,2.784a2.862,2.862,0,0,0,3.07,2.729,2.6,2.6,0,0,0,2.354-1.21h.067v.958h1.783v-4.743C-1146.244,563.438-1147.884,562.215-1150,562.215Zm-11.424,1.771h-2.631v-4.249h2.631a2.145,2.145,0,0,1,2.169,2.124A2.158,2.158,0,0,1-1161.421,563.986Zm-.054-5.963h-4.424V570.4h1.85v-4.688h2.576a3.923,3.923,0,0,0,4.061-3.841A3.928,3.928,0,0,0-1161.475,558.023ZM-1185.623,569a2.416,2.416,0,0,1-2.344-2.542,2.429,2.429,0,0,1,2.344-2.564,2.369,2.369,0,0,1,2.245,2.564A2.34,2.34,0,0,1-1185.623,569Zm2.124-5.822h-.067a2.919,2.919,0,0,0-2.223-.946,4.193,4.193,0,0,0-4.039,4.226,4.164,4.164,0,0,0,4.039,4.194,2.911,2.911,0,0,0,2.223-.958h.067v.605c0,1.608-.86,2.475-2.245,2.475a2.336,2.336,0,0,1-2.125-1.5l-1.608.672a4.023,4.023,0,0,0,3.73,2.487c2.169,0,4.007-1.277,4.007-4.392V562.48h-1.749v.694Zm3.038,7.23h1.85v-12.38h-1.85Zm4.577-4.083a2.313,2.313,0,0,1,2.2-2.455,1.624,1.624,0,0,1,1.563.892Zm5.746-1.408a3.916,3.916,0,0,0-3.609-2.685,4,4,0,0,0-3.972,4.214,4.119,4.119,0,0,0,4.182,4.214,4.183,4.183,0,0,0,3.51-1.87l-1.43-.958a2.4,2.4,0,0,1-2.07,1.166,2.152,2.152,0,0,1-2.048-1.277l5.634-2.334S-1170.138,564.913-1170.138,564.913Zm-44.88-1.388v1.783h4.281a3.759,3.759,0,0,1-.968,2.245,4.368,4.368,0,0,1-3.3,1.309,4.693,4.693,0,0,1-4.688-4.755,4.693,4.693,0,0,1,4.688-4.755,4.57,4.57,0,0,1,3.224,1.277l1.265-1.265a6.219,6.219,0,0,0-4.478-1.806,6.633,6.633,0,0,0-6.637,6.538,6.625,6.625,0,0,0,6.637,6.539,5.986,5.986,0,0,0,4.567-1.838,5.919,5.919,0,0,0,1.551-4.182,5.527,5.527,0,0,0-.1-1.112h-6.042S-1215.018,563.524-1215.018,563.524Zm10.973,5.471a2.439,2.439,0,0,1-2.376-2.554,2.427,2.427,0,0,1,2.376-2.554,2.425,2.425,0,0,1,2.376,2.554A2.433,2.433,0,0,1-1204.046,569Zm0-6.758a4.148,4.148,0,0,0-4.226,4.214,4.169,4.169,0,0,0,4.226,4.214,4.156,4.156,0,0,0,4.226-4.214A4.149,4.149,0,0,0-1204.046,562.238Zm9.221,6.758a2.438,2.438,0,0,1-2.376-2.554,2.427,2.427,0,0,1,2.376-2.554,2.425,2.425,0,0,1,2.376,2.554A2.431,2.431,0,0,1-1194.825,569Zm0-6.758a4.148,4.148,0,0,0-4.226,4.214,4.169,4.169,0,0,0,4.226,4.214,4.156,4.156,0,0,0,4.227-4.214A4.148,4.148,0,0,0-1194.825,562.238Z" transform="translate(1260.1 -547.389)" fill="#fff"/>
    <g id="Group_3482" data-name="Group 3482" transform="translate(0 0.375)">
      <path id="Path_1438" data-name="Path 1438" d="M-1606.46,439.07a2.007,2.007,0,0,0-.452,1.4v21.9a1.91,1.91,0,0,0,.462,1.386l.077.067,12.272-12.272v-.274L-1606.383,439Z" transform="translate(1606.912 -438.684)" fill="#fff" stroke="#1b0a38" stroke-width="1" opacity="0.7"/>
      <path id="Path_1439" data-name="Path 1439" d="M-1442.663,549.806l-4.093-4.093v-.287l4.093-4.093.089.054,4.842,2.752c1.386.781,1.386,2.07,0,2.86l-4.842,2.752Z" transform="translate(1459.556 -532.835)" fill="#fff" stroke="#1b0a38" stroke-width="1" opacity="0.5"/>
      <path id="Path_1441" data-name="Path 1441" d="M-1584.726,443.562l-14.473-8.221a1.6,1.6,0,0,0-2.058.067l12.348,12.336Z" transform="translate(1601.709 -435.01)" fill="#fff" stroke="#1b0a38" stroke-width="1" opacity="0.3"/>
      <path id="Path_20823" data-name="Path 20823" d="M-1584.726,439.192l-14.473,8.221a1.6,1.6,0,0,1-2.058-.067l12.348-12.336Z" transform="translate(1601.709 -422.228)" fill="#fff" stroke="#1b0a38" stroke-width="1" opacity="0.3"/>
    </g>
  </g>
</svg>
