<svg id="apple-itunes-seeklogo.com" xmlns="http://www.w3.org/2000/svg" width="127.652" height="36.914" viewBox="0 0 127.652 36.914">
  <path id="Path_20800" data-name="Path 20800" d="M7136.063,7203.729a26.439,26.439,0,0,1-2.4,4.478c-1.557,2.373-3.754,5.323-6.474,5.35-2.418.021-3.04-1.573-6.322-1.557s-3.964,1.584-6.382,1.562c-2.72-.024-4.8-2.69-6.36-5.061-4.355-6.631-4.811-14.411-2.125-18.546a9.639,9.639,0,0,1,7.754-4.66c2.883,0,4.7,1.582,7.079,1.582,2.313,0,3.722-1.584,7.057-1.584a9.423,9.423,0,0,1,7.093,3.743A8.112,8.112,0,0,0,7136.063,7203.729Z" transform="translate(-7104.335 -7176.649)" fill="#7d8e9f"/>
  <path id="Path_20801" data-name="Path 20801" d="M7132.972,7178.33a8.088,8.088,0,0,0,1.8-5.993,8.743,8.743,0,0,0-5.645,3.036,7.519,7.519,0,0,0-1.846,5.846A7.387,7.387,0,0,0,7132.972,7178.33Z" transform="translate(-7111.942 -7172.337)" fill="#7d8e9f"/>
  <g id="Group_2836" data-name="Group 2836" transform="translate(37.628 14.078)">
    <path id="Path_20802" data-name="Path 20802" d="M7165.891,7195.9a2.442,2.442,0,0,1-2.627,2.434,2.451,2.451,0,1,1,.031-4.9A2.441,2.441,0,0,1,7165.891,7195.9Zm-5.028,20.018v-15.662h4.868v15.662Zm13.1-17.487h-5.8v-4.1h16.589v4.1h-5.892v17.487h-4.9Zm26.26,12.46c0,2.049.065,3.713.127,5.027h-4.228l-.224-2.209h-.1a5.591,5.591,0,0,1-4.9,2.563c-3.172,0-5.509-1.987-5.509-6.823v-9.19h4.9v8.423c0,2.273.737,3.651,2.434,3.651a2.617,2.617,0,0,0,2.434-1.7,2.754,2.754,0,0,0,.158-1.057v-9.319h4.9v10.631Zm3.906-5.64c0-1.954-.065-3.62-.127-4.994h4.227l.224,2.146h.1a5.73,5.73,0,0,1,4.835-2.5c3.2,0,5.6,2.115,5.6,6.727v9.288h-4.867v-8.679c0-2.017-.706-3.395-2.465-3.395a2.6,2.6,0,0,0-2.465,1.824,3.484,3.484,0,0,0-.192,1.216v9.032h-4.867v-10.664h0Zm22.514,4.39c.16,2.017,2.146,2.979,4.42,2.979a13.794,13.794,0,0,0,4.323-.64l.641,3.3a15.449,15.449,0,0,1-5.67.991c-5.316,0-8.357-3.1-8.357-8.006,0-3.973,2.465-8.359,7.91-8.359,5.061,0,6.982,3.938,6.982,7.815a11.7,11.7,0,0,1-.159,1.921Zm5.733-3.333c0-1.184-.514-3.17-2.755-3.17-2.049,0-2.882,1.856-3.012,3.17Zm7.4,5.35a9.528,9.528,0,0,0,4.2,1.184c1.474,0,2.083-.514,2.083-1.314s-.481-1.184-2.307-1.793c-3.235-1.089-4.484-2.85-4.451-4.675,0-2.946,2.5-5.157,6.374-5.157a10.5,10.5,0,0,1,4.42.9l-.865,3.363a7.691,7.691,0,0,0-3.4-.9c-1.183,0-1.857.481-1.857,1.281,0,.737.609,1.122,2.53,1.794,2.979,1.024,4.228,2.53,4.259,4.836,0,2.915-2.305,5.091-6.789,5.091a11.054,11.054,0,0,1-5.061-1.123Z" transform="translate(-7160.733 -7193.438)" fill="#7d8e9f"/>
  </g>
</svg>
