<svg xmlns="http://www.w3.org/2000/svg" width="633.985" height="743.834" viewBox="0 0 633.985 743.834">
  <g id="Group_266" data-name="Group 266" transform="translate(-280.633 -646.102)" opacity="0.8">
    <path id="Path_629" data-name="Path 629" d="M3221,842.052c-22.313-58.118-62.2-105.036-112.289-132.117-56.59-30.577-121.541-33.338-187.873-7.985l-261.857,100.97,229.076,594.106,77.51-29.892,20.6-180.286,105.9-40.829c66.1-25.489,112.4-70.847,133.911-131.195C3245.022,961.394,3243.263,900.035,3221,842.052Z" transform="translate(-2325.466 -8.382)" fill="none" stroke="#450e87" stroke-width="2"/>
    <path id="Path_630" data-name="Path 630" d="M3221,842.052c-22.313-58.118-62.2-105.036-112.289-132.117-56.59-30.577-121.541-33.338-187.873-7.985l-261.857,100.97,229.076,594.106,77.51-29.892,20.6-180.286,105.9-40.829c66.1-25.489,112.4-70.847,133.911-131.195C3245.022,961.394,3243.263,900.035,3221,842.052Z" transform="translate(-2378.346 -38.673)" fill="#450e87"/>
  </g>
</svg>
