<svg id="WdeOsn.tif" xmlns="http://www.w3.org/2000/svg" width="98.732" height="30.278" viewBox="0 0 98.732 30.278">
  <g id="Group_2837" data-name="Group 2837" transform="translate(0)">
    <path id="Path_20804" data-name="Path 20804" d="M-2062,1921.18c2.05-.046,4.191-.831,6.052.761,3.126-1.839,6.158-1.939,9.141.408.292.231,1.189,0,1.615-.293,3.772-2.587,9.478-1.739,11.65,1.97a9.817,9.817,0,0,1,1.233,4.341c.178,3.663.051,7.34.091,11.012.01.916-.32,1.236-1.234,1.287-3.472.2-4.414-.671-4.4-4.182.007-2.246.03-4.493.006-6.74-.026-2.439-1.063-3.77-2.921-3.83-1.951-.064-3.378,1.414-3.444,3.793-.086,3.067-.11,6.139-.011,9.2.045,1.422-.466,1.778-1.792,1.755-3.114-.054-3.963-.867-3.945-4.023.014-2.356.044-4.714,0-7.07s-1.052-3.61-2.872-3.682c-1.842-.072-3.229,1.216-3.346,3.5-.163,3.17-.154,6.353-.105,9.529.02,1.283-.387,1.7-1.68,1.751a5.6,5.6,0,0,1-4.038-1.389Z" transform="translate(2062 -1910.977)" fill="#7d8e9f"/>
    <path id="Path_20805" data-name="Path 20805" d="M-1942.812,1936.278a35.777,35.777,0,0,1-3.775-1.931,10.09,10.09,0,0,1-3.457-12.925,10.158,10.158,0,0,1,12.665-5.085c.4.144.82.23,1.479.412V1906h10.531v5.924c-1.2,0-2.407.067-3.6-.019-1.306-.094-1.683.411-1.661,1.7q.107,6.224,0,12.451a10.176,10.176,0,0,1-6.936,9.568,11.683,11.683,0,0,0-1.3.654Zm6.973-10.349a5.029,5.029,0,0,0-5.012-5,5.041,5.041,0,0,0-5.01,5.006,5.073,5.073,0,0,0,5.005,5.028A5.122,5.122,0,0,0-1935.84,1925.929Z" transform="translate(2024.101 -1906)" fill="#7d8e9f"/>
    <path id="Path_20806" data-name="Path 20806" d="M-1963.467,1931.151c0,2.793-.041,5.587.021,8.379.024,1.087-.371,1.447-1.426,1.433-3.34-.044-6.682.036-10.021-.046-3.392-.083-6-2.112-6.377-5.473-.417-3.68-.34-7.42-.4-11.136-.049-2.908-.723-2.983,3.013-2.941.383,0,.769.028,1.149-.005,1.119-.1,1.565.356,1.539,1.516-.064,2.9-.038,5.805-.03,8.707.01,3.568,2.869,5.453,6.179,4,.357-.157.594-.968.6-1.48.052-3.669.09-7.34,0-11.006-.033-1.317.377-1.767,1.661-1.736,4.931.121,4.022-.652,4.1,4.037.031,1.916.005,3.833.005,5.75Z" transform="translate(2034.572 -1911.246)" fill="#7d8e9f"/>
    <path id="Path_20807" data-name="Path 20807" d="M-1994.8,1931.221c0,2.684-.053,5.371.024,8.054.036,1.253-.453,1.626-1.633,1.607-3.068-.051-6.138,0-9.206-.027-4.172-.038-6.957-2.345-7.254-6.493-.285-3.981-.122-7.994-.155-11.993,0-.109-.023-.25.034-.323,1.27-1.634,3.022-.469,4.532-.743.9-.162,1.176.491,1.162,1.361-.048,2.958-.056,5.918-.047,8.876.009,3.215.893,4.072,4.121,4.076.438,0,.88-.032,1.315.006,1.079.1,1.42-.376,1.406-1.442-.052-3.671.037-7.344-.047-11.014-.033-1.411.353-1.936,1.837-1.916,3.926.056,3.926-.005,3.922,3.886q0,3.041,0,6.083Z" transform="translate(2045.266 -1911.18)" fill="#7d8e9f"/>
  </g>
</svg>
