<svg xmlns="http://www.w3.org/2000/svg" width="135.051" height="40.505" viewBox="0 0 135.051 40.505">
  <path id="spotify-seeklogo.com" d="M94.681,1369.145a20.253,20.253,0,1,0,20.253,20.252,20.253,20.253,0,0,0-20.253-20.252Zm9.288,29.21a1.262,1.262,0,0,1-1.736.42c-4.756-2.907-10.742-3.563-17.792-1.953a1.262,1.262,0,1,1-.562-2.461c7.715-1.764,14.332-1,19.671,2.257a1.262,1.262,0,0,1,.418,1.737Zm2.479-5.514a1.58,1.58,0,0,1-2.172.52c-5.443-3.345-13.742-4.315-20.181-2.36a1.579,1.579,0,1,1-.918-3.021c7.355-2.232,16.5-1.151,22.75,2.691a1.579,1.579,0,0,1,.52,2.171Zm.213-5.742c-6.528-3.877-17.3-4.234-23.529-2.342a1.894,1.894,0,1,1-1.1-3.625c7.154-2.172,19.047-1.752,26.562,2.709a1.894,1.894,0,0,1-1.933,3.258Zm22.869.743c-3.5-.834-4.119-1.419-4.119-2.649,0-1.161,1.094-1.944,2.72-1.944a7.948,7.948,0,0,1,4.78,1.816.229.229,0,0,0,.173.042.226.226,0,0,0,.151-.093l1.707-2.407a.229.229,0,0,0-.044-.312,10.33,10.33,0,0,0-6.716-2.327c-3.776,0-6.413,2.266-6.413,5.508,0,3.477,2.275,4.708,6.206,5.658,3.346.771,3.911,1.417,3.911,2.571,0,1.279-1.142,2.074-2.98,2.074a8.031,8.031,0,0,1-5.568-2.3.24.24,0,0,0-.168-.055.227.227,0,0,0-.157.081l-1.914,2.278a.227.227,0,0,0,.023.317,11.413,11.413,0,0,0,7.708,2.956c4.068,0,6.7-2.223,6.7-5.664.007-2.9-1.732-4.513-5.99-5.549Zm15.2-3.449a5.485,5.485,0,0,0-4.4,2.118v-1.6a.229.229,0,0,0-.229-.23h-3.131a.229.229,0,0,0-.229.23v17.8a.229.229,0,0,0,.229.229H140.1a.229.229,0,0,0,.229-.229v-5.619a5.625,5.625,0,0,0,4.4,1.993c3.277,0,6.594-2.523,6.594-7.344s-3.313-7.346-6.59-7.346Zm2.953,7.346c0,2.455-1.512,4.169-3.678,4.169a4.192,4.192,0,0,1,0-8.338c2.131,0,3.678,1.753,3.678,4.168Zm12.143-7.346a7.361,7.361,0,1,0,7.5,7.346,7.384,7.384,0,0,0-7.5-7.346Zm0,11.539a3.982,3.982,0,0,1-3.937-4.195,3.888,3.888,0,0,1,3.885-4.144,3.994,3.994,0,0,1,3.963,4.2,3.9,3.9,0,0,1-3.911,4.142h0Zm16.511-11.253h-3.446v-3.523a.229.229,0,0,0-.229-.229h-3.131a.23.23,0,0,0-.23.229v3.523H167.8a.229.229,0,0,0-.228.23v2.691a.229.229,0,0,0,.228.229H169.3v6.963c0,2.814,1.4,4.24,4.163,4.24a5.713,5.713,0,0,0,2.933-.73.229.229,0,0,0,.116-.2v-2.562a.23.23,0,0,0-.332-.206,3.943,3.943,0,0,1-1.838.444c-1,0-1.453-.456-1.453-1.478v-6.471h3.446a.229.229,0,0,0,.228-.23v-2.691a.222.222,0,0,0-.225-.23Zm12.005.014v-.433c0-1.273.488-1.84,1.583-1.84a5.282,5.282,0,0,1,1.764.326.229.229,0,0,0,.3-.218v-2.638a.229.229,0,0,0-.162-.22,8.6,8.6,0,0,0-2.6-.374c-2.892,0-4.421,1.629-4.421,4.708v.663h-1.5a.23.23,0,0,0-.23.229v2.7a.23.23,0,0,0,.23.229h1.5v10.74a.229.229,0,0,0,.228.229h3.131a.23.23,0,0,0,.229-.229V1387.83h2.923l4.478,10.737c-.508,1.128-1.008,1.353-1.691,1.353a3.615,3.615,0,0,1-1.727-.49.235.235,0,0,0-.182-.017.232.232,0,0,0-.135.124L191,1401.865a.228.228,0,0,0,.1.3,6.593,6.593,0,0,0,3.344.856c2.312,0,3.59-1.077,4.716-3.974l5.432-14.037a.229.229,0,0,0-.213-.312h-3.26a.23.23,0,0,0-.217.154l-3.339,9.538-3.657-9.544a.229.229,0,0,0-.214-.147h-5.349Zm-6.96-.014h-3.131a.23.23,0,0,0-.229.23v13.66a.23.23,0,0,0,.229.229h3.131a.23.23,0,0,0,.229-.229V1384.91a.229.229,0,0,0-.23-.229Zm-1.548-6.22a2.246,2.246,0,1,0,2.245,2.245,2.246,2.246,0,0,0-2.245-2.245Zm27.43,10.612a2.209,2.209,0,1,1,2.215-2.216,2.195,2.195,0,0,1-2.215,2.216Zm.012-4.2a1.99,1.99,0,1,0,1.972,1.983,1.97,1.97,0,0,0-1.972-1.983h0Zm.489,2.21.623.873h-.526l-.561-.8h-.482v.8h-.44v-2.313h1.031c.537,0,.891.275.891.738a.686.686,0,0,1-.535.7Zm-.372-1.043h-.574v.731h.574c.286,0,.457-.14.457-.366s-.172-.365-.457-.365Z" transform="translate(-74.428 -1369.145)" fill="#7d8e9f"/>
</svg>
